<?xml version="1.0" encoding="UTF-8"?>
<svg version="1.1" xmlns="http://www.w3.org/2000/svg" width="1024" height="1024">
<style>
  path, circle, rect, polygon, g { fill: #2896df !important; stroke: #2896df !important; }
</style>
<path d="M0 0 C3.00603308 0.97924872 6.03854355 1.83476787 9.08496094 2.67919922 C9.08496094 3.33919922 9.08496094 3.99919922 9.08496094 4.67919922 C10.33792969 5.03884766 10.33792969 5.03884766 11.61621094 5.40576172 C37.76805828 15.00655252 59.72577852 40.82011573 71.20996094 65.43701172 C92.01291573 111.81206343 91.31505369 163.56188203 73.77246094 210.80419922 C68.49090826 224.65834419 62.25514443 237.65036646 55.08496094 250.61669922 C38.64065153 280.3755199 34.06768657 307.52572959 32.74884033 341.30401611 C32.47422215 348.30809527 32.15022047 355.31002869 31.82714844 362.31201172 C31.79583202 362.99482082 31.76451561 363.67762993 31.73225021 364.38113022 C28.50329339 434.43494286 14.77382591 516.81219461 -39.35253906 566.92919922 C-43.87592901 570.82434056 -48.63708599 573.90478532 -53.91503906 576.67919922 C-54.67171875 577.09427734 -55.42839844 577.50935547 -56.20800781 577.93701172 C-65.49967791 582.38829756 -76.62033444 581.98788602 -86.35253906 579.11669922 C-98.69246044 574.32433462 -106.91554863 564.17822255 -112.91503906 552.67919922 C-113.57503906 553.00919922 -114.23503906 553.33919922 -114.91503906 553.67919922 C-114.85832031 552.85806641 -114.80160156 552.03693359 -114.74316406 551.19091797 C-114.9861837 546.22558488 -116.69388592 542.07566026 -118.43066406 537.45458984 C-124.25611494 521.09963651 -126.1611466 503.38118891 -128.77663422 486.3071909 C-135.41306982 414.06537297 -135.41306982 414.06537297 -166.66113281 353.16748047 C-169.55117448 351.23005833 -171.90164706 350.67992969 -175.35253906 350.49169922 C-183.36005812 353.16087224 -187.29027855 358.56417462 -191.04003906 365.92919922 C-195.34030603 374.8716821 -198.31712948 384.12110581 -200.91503906 393.67919922 C-201.1813916 394.6529248 -201.44774414 395.62665039 -201.72216797 396.62988281 C-209.11870366 424.2191766 -213.4881891 452.52108278 -218.02441406 480.69091797 C-218.28654442 482.31475906 -218.28654442 482.31475906 -218.55397034 483.97140503 C-219.39378204 489.18179383 -220.22481004 494.39327411 -221.0378418 499.60791016 C-222.57158069 509.32810185 -224.29825067 518.97178064 -226.44238281 528.57763672 C-226.73546577 529.90908974 -226.73546577 529.90908974 -227.0344696 531.2674408 C-230.87384249 547.90161867 -238.79835517 564.50538073 -252.91503906 574.67919922 C-263.96350415 580.73196253 -275.10532288 582.57667655 -287.46972656 579.91357422 C-315.04785906 570.33877027 -331.59588919 540.93339739 -344.41503906 516.61669922 C-344.93179199 515.64104004 -345.44854492 514.66538086 -345.98095703 513.66015625 C-348.04374796 509.67823428 -349.9866566 505.92441791 -351.07128906 501.55810547 C-351.34972656 500.60806641 -351.62816406 499.65802734 -351.91503906 498.67919922 C-352.90503906 498.34919922 -353.89503906 498.01919922 -354.91503906 497.67919922 C-354.25503906 497.67919922 -353.59503906 497.67919922 -352.91503906 497.67919922 C-353.32753906 496.63248047 -353.74003906 495.58576172 -354.16503906 494.50732422 C-362.65492809 472.49834503 -368.63567458 449.96646785 -372.42431641 426.69238281 C-372.85553014 424.04460175 -373.31349555 421.40324852 -373.77832031 418.76123047 C-378.53265574 390.32710341 -379.13828656 360.93616526 -380.1809082 332.18115234 C-380.95534638 310.39297326 -380.95534638 310.39297326 -385.10253906 289.05419922 C-385.41421021 287.8992395 -385.41421021 287.8992395 -385.73217773 286.72094727 C-388.00525786 278.70145481 -391.32316038 271.18384487 -394.91503906 263.67919922 C-395.57503906 263.67919922 -396.23503906 263.67919922 -396.91503906 263.67919922 C-397.91503906 260.67919922 -397.91503906 260.67919922 -397.91503906 257.67919922 C-398.97939207 255.68725365 -400.11854584 253.73507935 -401.29003906 251.80419922 C-417.791154 223.69450331 -430.32979062 191.37113845 -432.91503906 158.67919922 C-432.98062012 157.85307129 -433.04620117 157.02694336 -433.11376953 156.17578125 C-436.3201509 112.98574727 -426.64007206 69.17010066 -398.39941406 35.47607422 C-391.72852275 27.96607708 -384.78033823 20.90273539 -376.55957031 15.08154297 C-374.62791134 13.67894842 -374.62791134 13.67894842 -373.91503906 10.67919922 C-372.82255859 10.51097656 -372.82255859 10.51097656 -371.70800781 10.33935547 C-368.80259611 9.65262179 -366.781767 8.63882826 -364.22753906 7.11669922 C-360.11900507 4.67919922 -360.11900507 4.67919922 -357.91503906 4.67919922 C-357.58503906 4.01919922 -357.25503906 3.35919922 -356.91503906 2.67919922 C-353.92827627 1.57881293 -350.95365818 0.62001015 -347.91503906 -0.32080078 C-346.74070312 -0.71654297 -345.56636719 -1.11228516 -344.35644531 -1.52001953 C-343.04280125 -1.9540918 -341.72899806 -2.38768277 -340.41503906 -2.82080078 C-339.20847656 -3.22298828 -338.00191406 -3.62517578 -336.75878906 -4.03955078 C-324.02589936 -7.67999576 -311.22566574 -8.90809715 -298.04003906 -8.82080078 C-296.91051819 -8.81716019 -296.91051819 -8.81716019 -295.75817871 -8.81344604 C-268.90704251 -8.64741541 -243.10159816 -1.63477531 -217.83496094 7.07373047 C-217.16104309 7.30483521 -216.48712524 7.53593994 -215.79278564 7.77404785 C-213.91450744 8.422852 -212.04012783 9.08291088 -210.16601562 9.74365234 C-207.20128629 10.59682468 -204.96956152 10.88389114 -201.91503906 10.67919922 C-201.91503906 11.33919922 -201.91503906 11.99919922 -201.91503906 12.67919922 C-198.48648005 13.87331955 -195.04609834 15.02912591 -191.60253906 16.17919922 C-190.1668457 16.68 -190.1668457 16.68 -188.70214844 17.19091797 C-177.03776577 21.03977151 -168.39858731 20.06827154 -156.97753906 15.92919922 C-154.61845331 15.10935603 -152.25906065 14.29039559 -149.89941406 13.47216797 C-148.61876087 13.02228977 -147.33816361 12.57225233 -146.05761719 12.12207031 C-139.10642666 9.68923757 -132.11592022 7.37166305 -125.12911987 5.0435791 C-122.7680629 4.25523 -120.40891847 3.46137052 -118.05004883 2.66650391 C-116.57410748 2.17188408 -115.09811687 1.67741122 -113.62207031 1.18310547 C-112.96156677 0.9594783 -112.30106323 0.73585114 -111.62054443 0.50544739 C-105.7660977 -1.44632936 -100.12511141 -3.32080078 -93.91503906 -3.32080078 C-93.58503906 -3.98080078 -93.25503906 -4.64080078 -92.91503906 -5.32080078 C-88.42569355 -6.1932242 -83.86226642 -6.57984264 -79.31542969 -7.05761719 C-76.94297515 -7.31773781 -74.57853737 -7.61794185 -72.21191406 -7.92626953 C-47.10648286 -11.03706023 -23.82996985 -7.98827192 0 0 Z M-364.91503906 55.67919922 C-365.50671875 56.28892578 -366.09839844 56.89865234 -366.70800781 57.52685547 C-380.36111896 72.07785013 -387.95798301 90.3735621 -391.91503906 109.67919922 C-392.12902344 110.69755859 -392.34300781 111.71591797 -392.56347656 112.76513672 C-395.97231374 131.58784634 -396.04976262 151.96017801 -391.91503906 170.67919922 C-391.25503906 170.67919922 -390.59503906 170.67919922 -389.91503906 170.67919922 C-390.13417969 171.46166016 -390.35332031 172.24412109 -390.57910156 173.05029297 C-391.04043581 178.03377567 -389.74032521 181.9998572 -388.29003906 186.74169922 C-388.0093457 187.68126465 -387.72865234 188.62083008 -387.43945312 189.58886719 C-383.41969431 202.84129564 -377.99099947 214.65197461 -371.45263672 226.81103516 C-355.12699616 257.26413538 -343.83887688 284.77436903 -341.89986038 319.6143837 C-341.76218204 322.07861435 -341.6159103 324.54221507 -341.46762085 327.00582886 C-341.04790957 334.00338421 -340.64273792 341.00175653 -340.24316406 348.00048828 C-339.19473773 366.28659909 -338.01270993 384.52096628 -335.92675781 402.72216797 C-335.84753208 403.42118855 -335.76830635 404.12020912 -335.68667984 404.84041214 C-331.46901542 441.57786875 -322.34249685 476.93696408 -304.91503906 509.67919922 C-304.60099121 510.2845752 -304.28694336 510.88995117 -303.96337891 511.51367188 C-298.6866027 521.64366121 -291.75717174 533.35951403 -281.91503906 539.67919922 C-278.59956419 540.66678748 -276.66087446 540.91568361 -273.35253906 539.86669922 C-267.62304253 534.72484336 -265.67954815 527.59884271 -264.06347656 520.26904297 C-263.8952388 519.50687469 -263.72700104 518.74470642 -263.55366516 517.95944214 C-261.08332042 506.26817467 -259.4876993 494.41164329 -257.73962402 482.59567261 C-245.74724885 401.63152134 -245.74724885 401.63152134 -232.91503906 366.67919922 C-232.52832031 365.61958984 -232.14160156 364.55998047 -231.74316406 363.46826172 C-226.88024801 351.04451044 -220.00759799 337.34288982 -210.21972656 328.07373047 C-208.68730829 326.75406853 -208.68730829 326.75406853 -208.91503906 324.67919922 C-208.25503906 324.67919922 -207.59503906 324.67919922 -206.91503906 324.67919922 C-206.91503906 324.01919922 -206.91503906 323.35919922 -206.91503906 322.67919922 C-206.35171875 322.40978516 -205.78839844 322.14037109 -205.20800781 321.86279297 C-202.78618089 320.61268469 -200.53017 319.19891977 -198.22753906 317.74169922 C-187.5841993 311.38051948 -176.44220822 309.27992145 -164.16503906 311.80419922 C-153.88920606 314.5551125 -142.92323649 320.66690307 -136.91503906 329.67919922 C-136.25503906 329.67919922 -135.59503906 329.67919922 -134.91503906 329.67919922 C-134.67011719 330.21158203 -134.42519531 330.74396484 -134.17285156 331.29248047 C-132.90969785 333.68933425 -131.46210512 335.89869119 -129.94604492 338.14160156 C-104.94577308 375.44929339 -98.8801601 423.79727376 -92.61035156 467.34716797 C-92.51164827 468.03207747 -92.41294498 468.71698696 -92.31125069 469.42265129 C-91.31714012 476.33243382 -90.33651373 483.24389169 -89.3857708 490.1597805 C-87.42195649 515.95152859 -87.42195649 515.95152859 -76.91503906 538.67919922 C-74.45449013 539.3921427 -74.45449013 539.3921427 -71.91503906 539.67919922 C-70.92503906 540.00919922 -69.93503906 540.33919922 -68.91503906 540.67919922 C-64.21303944 538.83928632 -61.28935497 536.38271667 -57.91503906 532.67919922 C-57.40328125 532.15970703 -56.89152344 531.64021484 -56.36425781 531.10498047 C-46.42054447 520.56693024 -40.06297847 506.66043317 -33.91503906 493.67919922 C-33.40328125 492.62087891 -32.89152344 491.56255859 -32.36425781 490.47216797 C-10.80856933 443.35178156 -8.43632953 388.70270214 -6.0925293 337.77197266 C-5.56308146 326.70608337 -4.8404335 315.71706411 -3.48535156 304.71826172 C-3.37018188 303.77584122 -3.25501221 302.83342072 -3.13635254 301.86244202 C0.79234686 272.04476126 14.36153384 246.62704387 28.28271484 220.42480469 C47.8909051 183.39976039 54.04379511 139.51188259 42.17480469 99.02294922 C34.19207593 74.53113624 21.22041791 53.32617701 -1.91503906 40.67919922 C-22.38754817 30.64791089 -43.37868324 27.07683768 -65.91503906 29.67919922 C-66.65898926 29.76347168 -67.40293945 29.84774414 -68.16943359 29.93457031 C-93.09254015 33.07730415 -117.71724983 43.39552433 -141.00146484 52.46875 C-166.07239062 62.08382298 -185.85496389 59.63315194 -210.52734375 50.87939453 C-216.58139936 48.73455903 -222.6558886 46.64859441 -228.72753906 44.55419922 C-229.95698242 44.12937256 -231.18642578 43.7045459 -232.453125 43.2668457 C-276.39721769 28.11503096 -328.9935681 16.92182265 -364.91503906 55.67919922 Z " fill="#010101" transform="translate(685.9150390625,357.32080078125)"/>
<path d="M0 0 C6.70199921 4.42436666 10.63684578 10.28230668 13.375 17.75 C15.06235258 26.1048526 13.69327075 34.31665829 9.6015625 41.734375 C6.5953172 45.98711226 2.68012843 49.65993579 -2 52 C-1.37965161 56.8522007 0.67283055 60.67301119 2.90234375 64.94921875 C3.29893692 65.72070755 3.69553009 66.49219635 4.10414124 67.2870636 C4.94776237 68.92506655 5.79439098 70.56152354 6.64379883 72.1965332 C7.90805755 74.63080981 9.16288483 77.06974556 10.41601562 79.50976562 C15.00187352 88.40704636 19.71868447 97.21835757 24.63194275 105.9394989 C27.10829349 110.34266181 29.44475267 114.78549114 31.6875 119.3125 C32.02773193 119.99836182 32.36796387 120.68422363 32.71850586 121.39086914 C33.00604736 121.97473389 33.29358887 122.55859863 33.58984375 123.16015625 C36.59401957 129.21546911 39.65175777 135.24326785 42.73306274 141.25961304 C43.40665464 142.57799185 44.07741075 143.89782369 44.74520874 145.21914673 C45.69260669 147.09264846 46.64983526 148.96081896 47.609375 150.828125 C48.16592773 151.9202832 48.72248047 153.01244141 49.29589844 154.13769531 C50.96385924 156.93929594 52.49137808 158.92709904 55 161 C61.15442818 161.98177783 64.60943538 159.94077116 69.5 156.625 C70.20012207 156.16875244 70.90024414 155.71250488 71.62158203 155.24243164 C73.75868863 153.8440928 75.88038185 152.42466964 78 151 C79.15314725 150.23492507 80.3067636 149.47055652 81.4609375 148.70703125 C83.83498694 147.13186502 86.20170907 145.54619483 88.56640625 143.95703125 C94.28187622 140.12916511 100.05113299 136.38323283 105.8125 132.625 C114.93969967 126.66884522 124.04042791 120.67540927 133.09765625 114.61328125 C133.72430176 114.1951416 134.35094727 113.77700195 134.99658203 113.34619141 C136.47702565 112.35141123 137.95101223 111.34700612 139.42138672 110.33740234 C140.6339917 109.51103271 140.6339917 109.51103271 141.87109375 108.66796875 C142.98182251 107.90456177 142.98182251 107.90456177 144.11499023 107.12573242 C146 106 146 106 148 106 C147.6390625 105.30777344 147.278125 104.61554688 146.90625 103.90234375 C142.62736086 94.88101914 140.8503953 85.7383527 143.95703125 76 C147.58084801 68.26919091 153.21437199 62.54592959 161 59 C169.87519318 56.43659271 177.53373378 56.48349952 185.75 60.8125 C190.20471338 63.81086478 193.22855502 66.83181188 196.1875 71.3125 C196.785625 72.199375 197.38375 73.08625 198 74 C198.66 74 199.32 74 200 74 C201.36081799 86.61714943 201.73476436 96.38813933 193.5 106.875 C188.83703243 111.77506762 183.32380812 113.90143257 177 116 C175.515 116.495 175.515 116.495 174 117 C172.92669298 119.71918454 172.92669298 119.71918454 172.18164062 123.13232422 C172.02310639 123.77618073 171.86457216 124.42003723 171.70123386 125.08340454 C171.17397771 127.23772009 170.66527592 129.39599808 170.15625 131.5546875 C169.78776629 133.07476226 169.41806851 134.59454318 169.04722595 136.11404419 C168.25984136 139.35019427 167.48031657 142.58809617 166.70700073 145.82763672 C165.50527213 150.86093494 164.28607078 155.8898819 163.06274414 160.91796875 C162.65617453 162.58977549 162.24963458 164.26158945 161.84312439 165.93341064 C161.6425688 166.75818153 161.44201321 167.58295242 161.23538017 168.43271637 C160.62875462 170.93031179 160.02383008 173.42831324 159.41944885 175.92645264 C156.40138179 188.39676313 153.31700135 200.84840767 150.13427734 213.27789307 C149.44800463 215.95896145 148.76693063 218.64131708 148.0859375 221.32373047 C147.68145197 222.90343878 147.27653647 224.48303709 146.87109375 226.0625 C146.69279526 226.76617706 146.51449677 227.46985413 146.33079529 228.19485474 C145.1153388 232.8846612 145.1153388 232.8846612 144 234 C142.29541262 234.09728977 140.58675499 234.12371503 138.87939358 234.12304783 C137.76271594 234.12503888 136.64603831 234.12702993 135.49552196 234.12908131 C133.63223604 234.12471205 133.63223604 234.12471205 131.73130798 234.12025452 C130.4237168 234.12110894 129.11612562 234.12196337 127.76891047 234.12284368 C124.12265526 234.12509111 120.47642916 234.12106399 116.83017766 234.11606562 C112.90445985 234.11176484 108.9787438 234.11320728 105.05302429 234.1139679 C98.24587042 234.11449337 91.4387261 234.11134414 84.63157463 234.10573006 C74.78946132 234.0976182 64.94735265 234.09500016 55.10523636 234.09374207 C39.13875847 234.09155105 23.17228567 234.08488963 7.20581055 234.07543945 C-8.30818659 234.06626661 -23.82218234 234.05918516 -39.33618164 234.05493164 C-40.2917575 234.05466892 -41.24733336 234.05440619 -42.23186607 234.05413551 C-47.02549823 234.05283051 -51.8191304 234.0515668 -56.61276257 234.05032361 C-96.40851195 234.03994945 -136.20425564 234.02232979 -176 234 C-176.48200525 232.56981356 -176.96264019 231.13916525 -177.44270229 229.70832539 C-177.71050391 228.91168329 -177.97830552 228.11504119 -178.25422233 227.29425842 C-179.1944891 224.40168729 -179.96079042 221.48743654 -180.68579102 218.53393555 C-180.97942032 217.34628098 -181.27304962 216.1586264 -181.57557678 214.9349823 C-181.88192551 213.68155533 -182.18827423 212.42812836 -182.50390625 211.13671875 C-182.83067859 209.81383776 -183.15791174 208.49107051 -183.48558044 207.16841125 C-184.69038438 202.30150293 -185.88820603 197.43288482 -187.08410645 192.56378174 C-188.09990922 188.42811529 -189.11940193 184.29339731 -190.14433098 180.15998268 C-190.62105287 178.2309963 -191.09225819 176.30064928 -191.56336975 174.37028503 C-191.99908546 172.61244438 -191.99908546 172.61244438 -192.44360352 170.8190918 C-192.69658707 169.78922653 -192.94957062 168.75936127 -193.21022034 167.69828796 C-193.92443637 165.25816368 -194.85458377 163.25436104 -196 161 C-196.36063724 158.67073051 -196.69018248 156.33657199 -197 154 C-197.59265586 151.21311719 -198.29135682 148.45573786 -198.99609375 145.6953125 C-199.18969986 144.93072723 -199.38330597 144.16614197 -199.58277893 143.37838745 C-199.99013208 141.77616658 -200.39949814 140.17445625 -200.81079102 138.57324219 C-201.44046001 136.11343672 -202.05731131 133.65063028 -202.67382812 131.1875 C-203.07213808 129.62740518 -203.47119963 128.06750201 -203.87109375 126.5078125 C-204.05449814 125.76935089 -204.23790253 125.03088928 -204.42686462 124.27005005 C-204.88943703 122.49608953 -205.43710494 120.74472299 -206 119 C-206.66 118.67 -207.32 118.34 -208 118 C-208 117.34 -208 116.68 -208 116 C-208.6290625 115.85304688 -209.258125 115.70609375 -209.90625 115.5546875 C-218.56715492 113.28511302 -224.39938487 109.88408824 -229.375 102.3125 C-233.69647654 94.42521495 -234.91668312 86.50528206 -232.953125 77.70703125 C-230.31934179 70.22665517 -225.15251768 63.56903408 -218 60 C-210.06940965 56.53121692 -202.43986203 55.98523629 -194.2578125 59.015625 C-185.65688228 63.0481086 -179.80902246 69.12273811 -176.20703125 77.94140625 C-173.66358689 86.39110395 -175.66833882 94.11526738 -179.16015625 101.96875 C-180.12736339 103.94170418 -180.12736339 103.94170418 -180 106 C-179.071875 106.4640625 -179.071875 106.4640625 -178.125 106.9375 C-175.75703255 108.12148372 -173.86752008 109.10689254 -171.79296875 110.78076172 C-168.74251765 113.20459044 -165.56349758 115.3680313 -162.3125 117.5078125 C-161.66458496 117.93691925 -161.01666992 118.366026 -160.34912109 118.80813599 C-158.23429342 120.20777801 -156.11717774 121.60391594 -154 123 C-152.53765272 123.96695954 -151.07541433 124.93408378 -149.61328125 125.90136719 C-145.84503453 128.39270447 -142.07305977 130.87832608 -138.29931641 133.36132812 C-136.75151249 134.38026891 -135.20432297 135.40014352 -133.65771484 136.42089844 C-131.37732617 137.92588816 -129.0951214 139.42808696 -126.8125 140.9296875 C-126.13010254 141.38076874 -125.44770508 141.83184998 -124.74462891 142.29660034 C-120.57835978 145.03177662 -116.33839372 147.54751313 -112 150 C-110.66456583 150.94764929 -109.34746175 151.92246457 -108.0625 152.9375 C-100.84455615 158.65249683 -100.84455615 158.65249683 -92.3125 161.625 C-87.99585553 160.81053878 -86.87710806 159.28874909 -84 156 C-82.37838803 153.56270312 -80.99981255 151.02044558 -79.625 148.4375 C-78.99597778 147.28096924 -78.99597778 147.28096924 -78.35424805 146.10107422 C-76.89282556 143.40599696 -75.44602893 140.70336593 -74 138 C-72.84787699 135.85795417 -71.69552177 133.71603323 -70.54296875 131.57421875 C-67.01206056 125.00222037 -63.49633227 118.42217862 -59.98291016 111.84082031 C-57.09586831 106.43389147 -54.20492567 101.02905031 -51.3125 95.625 C-50.69511963 94.47128906 -50.07773926 93.31757813 -49.44165039 92.12890625 C-44.92703634 83.70338002 -40.36813372 75.30282637 -35.7668457 66.92431641 C-34.88546095 65.3166531 -34.00775101 63.70696628 -33.13476562 62.09472656 C-32.13688812 60.25268935 -31.12428438 58.41864576 -30.109375 56.5859375 C-28.64390647 53.96055345 -28.64390647 53.96055345 -30 51 C-31.5778125 49.9790625 -31.5778125 49.9790625 -33.1875 48.9375 C-39.13284706 44.86383627 -42.60725519 38.38172048 -44.4375 31.5 C-45.95999216 22.47606212 -44.12831732 14.57158512 -39 7 C-28.63293708 -4.81257932 -13.86472119 -7.75076428 0 0 Z " fill="#2896df" transform="translate(528,85)"/>
<path d="M0 0 C0.66 0.66 1.32 1.32 2 2 C1.01 2.495 1.01 2.495 0 3 C0 2.01 0 1.02 0 0 Z " fill="#1F1E1D" transform="translate(369,917)"/>
<path d="M0 0 C0.99 1.485 0.99 1.485 2 3 C1.34 3 0.68 3 0 3 C0 2.01 0 1.02 0 0 Z " fill="#222020" transform="translate(531,732)"/>
<path d="M0 0 C0.99 0.33 1.98 0.66 3 1 C2.01 1 1.02 1 0 1 C0 0.67 0 0.34 0 0 Z " fill="#171717" transform="translate(604,233)"/>
<path d="M0 0 C3 1 3 1 3 1 Z " fill="#262525" transform="translate(414,939)"/>
<path d="M0 0 C0.66 0.66 1.32 1.32 2 2 C1.34 2 0.68 2 0 2 C0 1.34 0 0.68 0 0 Z " fill="#1F1D1D" transform="translate(363,910)"/>
<path d="" fill="#262624" transform="translate(0,0)"/>
<path d="" fill="#1C1D1B" transform="translate(0,0)"/>
<path d="" fill="#201F1E" transform="translate(0,0)"/>
<path d="" fill="#221F1F" transform="translate(0,0)"/>
<path d="" fill="#232120" transform="translate(0,0)"/>
<path d="M0 0 C0.99 0.495 0.99 0.495 2 1 C1.01 1.495 1.01 1.495 0 2 C0 1.34 0 0.68 0 0 Z " fill="#242222" transform="translate(580,746)"/>
<path d="" fill="#222120" transform="translate(0,0)"/>
<path d="" fill="#252423" transform="translate(0,0)"/>
<path d="M0 0 C0.99 0.495 0.99 0.495 2 1 C1.01 1.495 1.01 1.495 0 2 C0 1.34 0 0.68 0 0 Z " fill="#171716" transform="translate(668,192)"/>
<path d="M0 0 C3 1 3 1 3 1 Z " fill="#1F1F1F" transform="translate(503,80)"/>
<path d="" fill="#201E1D" transform="translate(0,0)"/>
<path d="" fill="#201F1F" transform="translate(0,0)"/>
<path d="M0 0 C2 1 2 1 2 1 Z " fill="#21211F" transform="translate(408,896)"/>
<path d="" fill="#1F1E1D" transform="translate(0,0)"/>
<path d="" fill="#201F20" transform="translate(0,0)"/>
<path d="" fill="#201F1D" transform="translate(0,0)"/>
<path d="" fill="#252222" transform="translate(0,0)"/>
<path d="" fill="#201F1E" transform="translate(0,0)"/>
<path d="" fill="#212121" transform="translate(0,0)"/>
<path d="" fill="#232323" transform="translate(0,0)"/>
<path d="" fill="#20221F" transform="translate(0,0)"/>
<path d="" fill="#232220" transform="translate(0,0)"/>
<path d="" fill="#222021" transform="translate(0,0)"/>
<path d="" fill="#242322" transform="translate(0,0)"/>
<path d="" fill="#1F1F1F" transform="translate(0,0)"/>
<path d="" fill="#232122" transform="translate(0,0)"/>
<path d="" fill="#1E1D1D" transform="translate(0,0)"/>
<path d="" fill="#252421" transform="translate(0,0)"/>
<path d="M0 0 C2 1 2 1 2 1 Z " fill="#201F20" transform="translate(561,405)"/>
<path d="M0 0 C2 1 2 1 2 1 Z " fill="#21201E" transform="translate(673,395)"/>
<path d="M0 0 C2 1 2 1 2 1 Z " fill="#222120" transform="translate(660,391)"/>
<path d="M0 0 C2 1 2 1 2 1 Z " fill="#21201F" transform="translate(656,390)"/>
<path d="M0 0 C2 1 2 1 2 1 Z " fill="#232221" transform="translate(645,388)"/>
<path d="M0 0 C2 1 2 1 2 1 Z " fill="#212120" transform="translate(513,376)"/>
<path d="M0 0 C2 1 2 1 2 1 Z " fill="#1E1D1D" transform="translate(551,363)"/>
<path d="M0 0 C2 1 2 1 2 1 Z " fill="#191A18" transform="translate(577,355)"/>
<path d="M0 0 C2 1 2 1 2 1 Z " fill="#1D1B1A" transform="translate(398,347)"/>
<path d="M0 0 C2 1 2 1 2 1 Z " fill="#1E1E1B" transform="translate(377,347)"/>
<path d="" fill="#1C1D1B" transform="translate(0,0)"/>
<path d="M0 0 C2 1 2 1 2 1 Z " fill="#161716" transform="translate(440,243)"/>
<path d="" fill="#141413" transform="translate(0,0)"/>
<path d="M0 0 C2 1 2 1 2 1 Z " fill="#161313" transform="translate(390,216)"/>
<path d="" fill="#191918" transform="translate(0,0)"/>
<path d="" fill="#181818" transform="translate(0,0)"/>
<path d="" fill="#161715" transform="translate(0,0)"/>
<path d="M0 0 C2 1 2 1 2 1 Z " fill="#1A1819" transform="translate(336,144)"/>
<path d="" fill="#1D1C1C" transform="translate(0,0)"/>
<path d="M0 0 C2 1 2 1 2 1 Z " fill="#1F201E" transform="translate(501,81)"/>
<path d="" fill="#282524" transform="translate(0,0)"/>
<path d="" fill="#262424" transform="translate(0,0)"/>
<path d="" fill="#252626" transform="translate(0,0)"/>
<path d="" fill="#242323" transform="translate(0,0)"/>
<path d="" fill="#252520" transform="translate(0,0)"/>
<path d="" fill="#262321" transform="translate(0,0)"/>
<path d="" fill="#2A2A29" transform="translate(0,0)"/>
<path d="" fill="#212120" transform="translate(0,0)"/>
<path d="" fill="#201F1C" transform="translate(0,0)"/>
<path d="" fill="#252422" transform="translate(0,0)"/>
<path d="" fill="#232323" transform="translate(0,0)"/>
<path d="" fill="#242321" transform="translate(0,0)"/>
<path d="" fill="#232222" transform="translate(0,0)"/>
<path d="" fill="#202120" transform="translate(0,0)"/>
<path d="" fill="#1E1C1C" transform="translate(0,0)"/>
<path d="" fill="#242222" transform="translate(0,0)"/>
<path d="" fill="#1E1E1C" transform="translate(0,0)"/>
<path d="" fill="#1F1D1D" transform="translate(0,0)"/>
<path d="" fill="#201B1D" transform="translate(0,0)"/>
<path d="" fill="#1F1E1F" transform="translate(0,0)"/>
<path d="" fill="#1F1F1F" transform="translate(0,0)"/>
<path d="" fill="#211F20" transform="translate(0,0)"/>
<path d="" fill="#20211F" transform="translate(0,0)"/>
<path d="" fill="#232220" transform="translate(0,0)"/>
<path d="" fill="#212320" transform="translate(0,0)"/>
<path d="" fill="#201D1D" transform="translate(0,0)"/>
<path d="" fill="#252423" transform="translate(0,0)"/>
<path d="" fill="#21211F" transform="translate(0,0)"/>
<path d="" fill="#22211F" transform="translate(0,0)"/>
<path d="" fill="#242220" transform="translate(0,0)"/>
<path d="" fill="#21201E" transform="translate(0,0)"/>
<path d="" fill="#232120" transform="translate(0,0)"/>
<path d="" fill="#222020" transform="translate(0,0)"/>
<path d="" fill="#21211E" transform="translate(0,0)"/>
<path d="" fill="#201D1D" transform="translate(0,0)"/>
<path d="" fill="#1C1D1A" transform="translate(0,0)"/>
<path d="" fill="#212020" transform="translate(0,0)"/>
<path d="" fill="#1F201F" transform="translate(0,0)"/>
<path d="" fill="#242323" transform="translate(0,0)"/>
<path d="" fill="#242421" transform="translate(0,0)"/>
<path d="" fill="#232320" transform="translate(0,0)"/>
<path d="" fill="#22211F" transform="translate(0,0)"/>
<path d="" fill="#232220" transform="translate(0,0)"/>
<path d="" fill="#242020" transform="translate(0,0)"/>
<path d="" fill="#1F1E1C" transform="translate(0,0)"/>
<path d="" fill="#1F1F20" transform="translate(0,0)"/>
<path d="" fill="#242523" transform="translate(0,0)"/>
<path d="" fill="#1D1C1C" transform="translate(0,0)"/>
<path d="" fill="#23211F" transform="translate(0,0)"/>
<path d="" fill="#1F1E1E" transform="translate(0,0)"/>
<path d="" fill="#201F20" transform="translate(0,0)"/>
<path d="" fill="#232221" transform="translate(0,0)"/>
<path d="" fill="#222321" transform="translate(0,0)"/>
<path d="" fill="#232320" transform="translate(0,0)"/>
<path d="" fill="#262423" transform="translate(0,0)"/>
<path d="" fill="#242221" transform="translate(0,0)"/>
<path d="" fill="#232022" transform="translate(0,0)"/>
<path d="" fill="#20201D" transform="translate(0,0)"/>
<path d="" fill="#21211F" transform="translate(0,0)"/>
<path d="" fill="#232120" transform="translate(0,0)"/>
<path d="" fill="#262324" transform="translate(0,0)"/>
<path d="" fill="#22201F" transform="translate(0,0)"/>
<path d="" fill="#252524" transform="translate(0,0)"/>
<path d="" fill="#232222" transform="translate(0,0)"/>
<path d="" fill="#232222" transform="translate(0,0)"/>
<path d="" fill="#221F20" transform="translate(0,0)"/>
<path d="" fill="#1F201E" transform="translate(0,0)"/>
<path d="" fill="#1F1E1C" transform="translate(0,0)"/>
<path d="" fill="#252524" transform="translate(0,0)"/>
<path d="" fill="#212321" transform="translate(0,0)"/>
<path d="" fill="#1F1E1F" transform="translate(0,0)"/>
<path d="" fill="#22201F" transform="translate(0,0)"/>
<path d="" fill="#242121" transform="translate(0,0)"/>
<path d="" fill="#222221" transform="translate(0,0)"/>
<path d="" fill="#212021" transform="translate(0,0)"/>
<path d="" fill="#252323" transform="translate(0,0)"/>
<path d="" fill="#232221" transform="translate(0,0)"/>
<path d="" fill="#232120" transform="translate(0,0)"/>
<path d="" fill="#232223" transform="translate(0,0)"/>
<path d="" fill="#262221" transform="translate(0,0)"/>
<path d="" fill="#242222" transform="translate(0,0)"/>
<path d="" fill="#242425" transform="translate(0,0)"/>
<path d="" fill="#242323" transform="translate(0,0)"/>
<path d="" fill="#22211F" transform="translate(0,0)"/>
<path d="" fill="#221E20" transform="translate(0,0)"/>
<path d="" fill="#222021" transform="translate(0,0)"/>
<path d="" fill="#242220" transform="translate(0,0)"/>
<path d="" fill="#252725" transform="translate(0,0)"/>
<path d="" fill="#222321" transform="translate(0,0)"/>
<path d="" fill="#211F21" transform="translate(0,0)"/>
<path d="" fill="#201F1F" transform="translate(0,0)"/>
<path d="" fill="#211F22" transform="translate(0,0)"/>
<path d="" fill="#212020" transform="translate(0,0)"/>
<path d="" fill="#21211F" transform="translate(0,0)"/>
<path d="" fill="#221E1F" transform="translate(0,0)"/>
<path d="" fill="#222222" transform="translate(0,0)"/>
<path d="" fill="#21211E" transform="translate(0,0)"/>
<path d="" fill="#252122" transform="translate(0,0)"/>
<path d="" fill="#242222" transform="translate(0,0)"/>
<path d="" fill="#232122" transform="translate(0,0)"/>
<path d="" fill="#242223" transform="translate(0,0)"/>
<path d="" fill="#262423" transform="translate(0,0)"/>
<path d="" fill="#262524" transform="translate(0,0)"/>
<path d="" fill="#252323" transform="translate(0,0)"/>
<path d="" fill="#272523" transform="translate(0,0)"/>
<path d="" fill="#252322" transform="translate(0,0)"/>
<path d="" fill="#252522" transform="translate(0,0)"/>
<path d="" fill="#222121" transform="translate(0,0)"/>
<path d="" fill="#252324" transform="translate(0,0)"/>
<path d="" fill="#212121" transform="translate(0,0)"/>
<path d="" fill="#222121" transform="translate(0,0)"/>
<path d="" fill="#23221F" transform="translate(0,0)"/>
<path d="" fill="#222422" transform="translate(0,0)"/>
<path d="" fill="#222221" transform="translate(0,0)"/>
<path d="" fill="#252223" transform="translate(0,0)"/>
<path d="" fill="#1D1C20" transform="translate(0,0)"/>
<path d="" fill="#242120" transform="translate(0,0)"/>
<path d="" fill="#252424" transform="translate(0,0)"/>
<path d="" fill="#202120" transform="translate(0,0)"/>
<path d="" fill="#232121" transform="translate(0,0)"/>
<path d="" fill="#23221F" transform="translate(0,0)"/>
<path d="" fill="#252324" transform="translate(0,0)"/>
<path d="" fill="#222121" transform="translate(0,0)"/>
<path d="" fill="#1F1D1D" transform="translate(0,0)"/>
<path d="" fill="#272625" transform="translate(0,0)"/>
<path d="" fill="#262322" transform="translate(0,0)"/>
<path d="" fill="#252322" transform="translate(0,0)"/>
<path d="" fill="#201E1F" transform="translate(0,0)"/>
<path d="" fill="#242524" transform="translate(0,0)"/>
<path d="" fill="#262321" transform="translate(0,0)"/>
<path d="" fill="#222324" transform="translate(0,0)"/>
<path d="" fill="#272827" transform="translate(0,0)"/>
<path d="" fill="#212020" transform="translate(0,0)"/>
<path d="" fill="#252424" transform="translate(0,0)"/>
<path d="" fill="#252525" transform="translate(0,0)"/>
<path d="" fill="#222220" transform="translate(0,0)"/>
<path d="" fill="#23201F" transform="translate(0,0)"/>
<path d="" fill="#252423" transform="translate(0,0)"/>
<path d="" fill="#232322" transform="translate(0,0)"/>
<path d="" fill="#282625" transform="translate(0,0)"/>
<path d="" fill="#252522" transform="translate(0,0)"/>
<path d="" fill="#232121" transform="translate(0,0)"/>
<path d="" fill="#252524" transform="translate(0,0)"/>
<path d="" fill="#262527" transform="translate(0,0)"/>
<path d="" fill="#272624" transform="translate(0,0)"/>
<path d="" fill="#22221E" transform="translate(0,0)"/>
<path d="" fill="#242524" transform="translate(0,0)"/>
<path d="" fill="#262523" transform="translate(0,0)"/>
<path d="" fill="#222121" transform="translate(0,0)"/>
<path d="" fill="#232022" transform="translate(0,0)"/>
<path d="" fill="#242121" transform="translate(0,0)"/>
<path d="" fill="#242525" transform="translate(0,0)"/>
<path d="" fill="#201F1B" transform="translate(0,0)"/>
<path d="" fill="#242322" transform="translate(0,0)"/>
<path d="" fill="#252323" transform="translate(0,0)"/>
<path d="" fill="#232323" transform="translate(0,0)"/>
<path d="" fill="#221E22" transform="translate(0,0)"/>
<path d="" fill="#212020" transform="translate(0,0)"/>
<path d="" fill="#21201E" transform="translate(0,0)"/>
<path d="" fill="#272927" transform="translate(0,0)"/>
<path d="" fill="#242423" transform="translate(0,0)"/>
<path d="" fill="#212220" transform="translate(0,0)"/>
<path d="" fill="#252624" transform="translate(0,0)"/>
<path d="" fill="#232323" transform="translate(0,0)"/>
<path d="" fill="#211F1E" transform="translate(0,0)"/>
<path d="" fill="#222120" transform="translate(0,0)"/>
<path d="" fill="#202020" transform="translate(0,0)"/>
<path d="" fill="#221F1E" transform="translate(0,0)"/>
<path d="" fill="#22201E" transform="translate(0,0)"/>
<path d="" fill="#212320" transform="translate(0,0)"/>
<path d="" fill="#212223" transform="translate(0,0)"/>
<path d="" fill="#1C1D1B" transform="translate(0,0)"/>
<path d="" fill="#222224" transform="translate(0,0)"/>
<path d="" fill="#21211F" transform="translate(0,0)"/>
<path d="" fill="#211C1F" transform="translate(0,0)"/>
<path d="" fill="#1D1B1D" transform="translate(0,0)"/>
<path d="" fill="#1F1E1E" transform="translate(0,0)"/>
<path d="" fill="#212220" transform="translate(0,0)"/>
<path d="" fill="#1C1D1D" transform="translate(0,0)"/>
<path d="" fill="#242220" transform="translate(0,0)"/>
<path d="" fill="#22211F" transform="translate(0,0)"/>
<path d="" fill="#222321" transform="translate(0,0)"/>
<path d="" fill="#1F1D1D" transform="translate(0,0)"/>
<path d="" fill="#232122" transform="translate(0,0)"/>
<path d="" fill="#232322" transform="translate(0,0)"/>
<path d="" fill="#21211F" transform="translate(0,0)"/>
<path d="" fill="#252523" transform="translate(0,0)"/>
<path d="" fill="#242321" transform="translate(0,0)"/>
<path d="" fill="#232223" transform="translate(0,0)"/>
<path d="" fill="#232421" transform="translate(0,0)"/>
<path d="" fill="#252422" transform="translate(0,0)"/>
<path d="" fill="#242221" transform="translate(0,0)"/>
<path d="" fill="#252320" transform="translate(0,0)"/>
<path d="" fill="#232222" transform="translate(0,0)"/>
<path d="" fill="#232221" transform="translate(0,0)"/>
<path d="" fill="#222120" transform="translate(0,0)"/>
<path d="" fill="#212122" transform="translate(0,0)"/>
<path d="" fill="#22211F" transform="translate(0,0)"/>
<path d="" fill="#1F201D" transform="translate(0,0)"/>
<path d="" fill="#20201C" transform="translate(0,0)"/>
<path d="" fill="#211E1E" transform="translate(0,0)"/>
<path d="" fill="#201D1C" transform="translate(0,0)"/>
<path d="" fill="#1C191B" transform="translate(0,0)"/>
<path d="" fill="#1D1D1A" transform="translate(0,0)"/>
<path d="" fill="#1C1B1A" transform="translate(0,0)"/>
<path d="" fill="#1E1C1B" transform="translate(0,0)"/>
<path d="" fill="#212020" transform="translate(0,0)"/>
<path d="" fill="#20201F" transform="translate(0,0)"/>
<path d="" fill="#191817" transform="translate(0,0)"/>
<path d="" fill="#1F1F1E" transform="translate(0,0)"/>
<path d="" fill="#201E1F" transform="translate(0,0)"/>
<path d="" fill="#1F1E1E" transform="translate(0,0)"/>
<path d="" fill="#191818" transform="translate(0,0)"/>
<path d="" fill="#21201E" transform="translate(0,0)"/>
<path d="" fill="#211F1D" transform="translate(0,0)"/>
<path d="" fill="#151617" transform="translate(0,0)"/>
<path d="" fill="#181817" transform="translate(0,0)"/>
<path d="" fill="#1A1916" transform="translate(0,0)"/>
<path d="" fill="#1F1F1D" transform="translate(0,0)"/>
<path d="" fill="#201E1F" transform="translate(0,0)"/>
<path d="" fill="#1B1A17" transform="translate(0,0)"/>
<path d="" fill="#1C1C1A" transform="translate(0,0)"/>
<path d="" fill="#212121" transform="translate(0,0)"/>
<path d="" fill="#1D1D1C" transform="translate(0,0)"/>
<path d="" fill="#201E1C" transform="translate(0,0)"/>
<path d="" fill="#1E1E1C" transform="translate(0,0)"/>
<path d="" fill="#1D1C1A" transform="translate(0,0)"/>
<path d="" fill="#1F1F1F" transform="translate(0,0)"/>
<path d="" fill="#1E1B1D" transform="translate(0,0)"/>
<path d="" fill="#1F1D1C" transform="translate(0,0)"/>
<path d="" fill="#1E1D1C" transform="translate(0,0)"/>
<path d="" fill="#1E1E1C" transform="translate(0,0)"/>
<path d="" fill="#1A1B19" transform="translate(0,0)"/>
<path d="" fill="#1B1A1A" transform="translate(0,0)"/>
<path d="" fill="#1B1C1B" transform="translate(0,0)"/>
<path d="" fill="#191918" transform="translate(0,0)"/>
<path d="" fill="#131613" transform="translate(0,0)"/>
<path d="" fill="#19191A" transform="translate(0,0)"/>
<path d="" fill="#191918" transform="translate(0,0)"/>
<path d="" fill="#1B1919" transform="translate(0,0)"/>
<path d="" fill="#1C1918" transform="translate(0,0)"/>
<path d="" fill="#171717" transform="translate(0,0)"/>
<path d="" fill="#1A1A1A" transform="translate(0,0)"/>
<path d="" fill="#191818" transform="translate(0,0)"/>
<path d="" fill="#161714" transform="translate(0,0)"/>
<path d="" fill="#1B1B18" transform="translate(0,0)"/>
<path d="" fill="#181818" transform="translate(0,0)"/>
<path d="" fill="#161414" transform="translate(0,0)"/>
<path d="" fill="#1C1A1A" transform="translate(0,0)"/>
<path d="" fill="#151614" transform="translate(0,0)"/>
<path d="" fill="#141515" transform="translate(0,0)"/>
<path d="" fill="#1A1A18" transform="translate(0,0)"/>
<path d="" fill="#171616" transform="translate(0,0)"/>
<path d="" fill="#161616" transform="translate(0,0)"/>
<path d="" fill="#171716" transform="translate(0,0)"/>
<path d="" fill="#171614" transform="translate(0,0)"/>
<path d="" fill="#171516" transform="translate(0,0)"/>
<path d="" fill="#171716" transform="translate(0,0)"/>
<path d="" fill="#151815" transform="translate(0,0)"/>
<path d="" fill="#131414" transform="translate(0,0)"/>
<path d="" fill="#181616" transform="translate(0,0)"/>
<path d="" fill="#171616" transform="translate(0,0)"/>
<path d="" fill="#151516" transform="translate(0,0)"/>
<path d="" fill="#171615" transform="translate(0,0)"/>
<path d="" fill="#171613" transform="translate(0,0)"/>
<path d="" fill="#161717" transform="translate(0,0)"/>
<path d="" fill="#161414" transform="translate(0,0)"/>
<path d="" fill="#171818" transform="translate(0,0)"/>
<path d="" fill="#171515" transform="translate(0,0)"/>
<path d="" fill="#171914" transform="translate(0,0)"/>
<path d="" fill="#171715" transform="translate(0,0)"/>
<path d="" fill="#181715" transform="translate(0,0)"/>
<path d="" fill="#191C1A" transform="translate(0,0)"/>
<path d="" fill="#1C1D1B" transform="translate(0,0)"/>
<path d="" fill="#1C1B1C" transform="translate(0,0)"/>
<path d="" fill="#1B1917" transform="translate(0,0)"/>
<path d="" fill="#1C1A1B" transform="translate(0,0)"/>
<path d="" fill="#1D1D1C" transform="translate(0,0)"/>
<path d="" fill="#181718" transform="translate(0,0)"/>
<path d="" fill="#171615" transform="translate(0,0)"/>
<path d="" fill="#161413" transform="translate(0,0)"/>
<path d="" fill="#1C1C1D" transform="translate(0,0)"/>
<path d="" fill="#171716" transform="translate(0,0)"/>
<path d="" fill="#151815" transform="translate(0,0)"/>
<path d="" fill="#1D1D1C" transform="translate(0,0)"/>
<path d="" fill="#161516" transform="translate(0,0)"/>
<path d="" fill="#141212" transform="translate(0,0)"/>
<path d="" fill="#191918" transform="translate(0,0)"/>
<path d="" fill="#161615" transform="translate(0,0)"/>
<path d="" fill="#161515" transform="translate(0,0)"/>
<path d="" fill="#181919" transform="translate(0,0)"/>
<path d="" fill="#171717" transform="translate(0,0)"/>
<path d="" fill="#171514" transform="translate(0,0)"/>
<path d="" fill="#181716" transform="translate(0,0)"/>
<path d="" fill="#1C1E1D" transform="translate(0,0)"/>
<path d="" fill="#171415" transform="translate(0,0)"/>
<path d="" fill="#1E1C1D" transform="translate(0,0)"/>
<path d="" fill="#1C1919" transform="translate(0,0)"/>
<path d="" fill="#1A1B1A" transform="translate(0,0)"/>
<path d="" fill="#1B1C1C" transform="translate(0,0)"/>
<path d="" fill="#151716" transform="translate(0,0)"/>
<path d="" fill="#1E1C1C" transform="translate(0,0)"/>
<path d="" fill="#1D1C1A" transform="translate(0,0)"/>
<path d="" fill="#1E1E1D" transform="translate(0,0)"/>
<path d="" fill="#1C1B1A" transform="translate(0,0)"/>
<path d="" fill="#1F1D1D" transform="translate(0,0)"/>
<path d="" fill="#1E1D1E" transform="translate(0,0)"/>
<path d="" fill="#201E1E" transform="translate(0,0)"/>
<path d="" fill="#1E1C1D" transform="translate(0,0)"/>
<path d="" fill="#1C1A19" transform="translate(0,0)"/>
</svg>
