<?xml version="1.0" encoding="UTF-8"?>
<svg version="1.1" xmlns="http://www.w3.org/2000/svg" width="1024" height="1024" viewBox="-120 -60 1200 1200">
<path d="M0 0 C31.42577897 -0.52871973 61.81124556 5.15041897 91.96508789 13.56176758 C94.41957517 14.24038648 94.41957517 14.24038648 97.33984375 14.125 C97.33984375 14.785 97.33984375 15.445 97.33984375 16.125 C98.48710937 16.32867187 99.634375 16.53234375 100.81640625 16.7421875 C108.36719891 18.41915555 115.51863626 21.46494089 122.71484375 24.25 C124.90480915 25.09584946 127.09542227 25.93976287 129.28848267 26.77755737 C130.64480479 27.29579145 131.99936958 27.81865471 133.35189819 28.34671021 C136.17930545 29.42790508 138.28227251 30.125 141.33984375 30.125 C141.33984375 30.785 141.33984375 31.445 141.33984375 32.125 C142.37109375 32.3725 143.40234375 32.62 144.46484375 32.875 C149.64921746 34.15954179 154.75725352 35.69711877 159.875 37.22265625 C166.62140669 38.97961222 173.34726815 39.36602881 180.27734375 39.6875 C181.58928711 39.75227539 181.58928711 39.75227539 182.92773438 39.81835938 C185.0649637 39.92346901 187.20238613 40.02463985 189.33984375 40.125 C189.66984375 39.465 189.99984375 38.805 190.33984375 38.125 C192.66918446 37.76482311 195.00357863 37.43712316 197.33984375 37.125 C199.94258312 36.39254273 202.47201082 35.61914061 205.02734375 34.75 C205.78281494 34.49669922 206.53828613 34.24339844 207.31665039 33.98242188 C214.73195977 31.4382755 221.99624541 28.52649032 229.27734375 25.625 C269.66310557 9.6166162 308.89999664 5.91391069 352.02734375 6.0625 C354.59049391 6.06752865 357.15364503 6.07208912 359.71679688 6.07617188 C365.92450059 6.08706101 372.1321675 6.10368937 378.33984375 6.125 C379.28851912 9.20751554 379.34097166 11.52496868 378.90258789 14.70996094 C378.78238785 15.61059265 378.66218781 16.51122437 378.53834534 17.43914795 C378.40194138 18.40282288 378.26553741 19.3664978 378.125 20.359375 C377.99040878 21.35253723 377.85581757 22.34569946 377.71714783 23.36895752 C377.28594395 26.53865119 376.84428046 29.70678673 376.40234375 32.875 C376.10803361 35.02464518 375.81440552 37.17438386 375.52148438 39.32421875 C374.8021797 44.59225608 374.07428371 49.85905262 373.33984375 55.125 C372.02830322 55.10405273 370.7167627 55.08310547 369.36547852 55.06152344 C343.06242737 54.67948687 317.3180254 54.60359068 291.33984375 59.125 C290.12651367 59.33398926 288.91318359 59.54297852 287.66308594 59.75830078 C270.27901812 62.8684228 253.8527795 67.910856 237.33984375 74.125 C244.80043266 79.09872594 255.32516001 80.20205325 264.08984375 81.625 C274.88603103 83.40511242 286.15169545 86.20178142 293.33984375 95.125 C296.96184417 102.36900083 297.98773738 110.17453766 295.390625 117.9765625 C292.41739688 124.33570657 289.11224518 128.03419998 282.65234375 130.875 C273.71433467 133.8408486 265.13414645 131.68243751 256.33984375 129.1875 C255.20321289 128.87031006 254.06658203 128.55312012 252.89550781 128.22631836 C227.93908477 121.12320402 204.30491887 111.2995821 180.51428223 101.06048584 C177.35088399 99.69953023 174.18516288 98.3440339 171.01953125 96.98828125 C169.90497559 96.51044189 168.79041992 96.03260254 167.64208984 95.5402832 C165.43438502 94.59410068 163.22637528 93.64862929 161.01806641 92.70385742 C156.01750627 90.56368669 151.01781226 88.42258236 146.03125 86.25 C103.34252877 67.66168375 58.47670503 50.50082209 11.33984375 49.125 C10.2209375 49.08503906 9.10203125 49.04507813 7.94921875 49.00390625 C-38.57718222 48.14790104 -80.28056958 62.68775769 -113.84765625 95 C-148.32909643 130.53642788 -162.32296392 181.90321203 -162.01123047 230.34277344 C-161.03223305 282.0037141 -142.838035 333.93643608 -120.66015625 380.125 C-120.18191406 381.12515137 -119.70367187 382.12530273 -119.2109375 383.15576172 C-113.27849677 395.55391645 -107.29314031 407.91873784 -101.08837891 420.18310547 C-95.11863077 431.99166495 -89.47308394 443.79767726 -84.66015625 456.125 C-84.36592773 456.86379395 -84.07169922 457.60258789 -83.76855469 458.36376953 C-68.90633665 495.87510221 -63.71995372 535.58840686 -58.75950623 575.36434937 C-44.53334939 704.50258937 -44.53334939 704.50258937 20.02734375 819.1875 C20.54989746 819.72415283 21.07245117 820.26080566 21.61083984 820.8137207 C26.52903208 825.67084139 32.15760538 829.96886438 39.33984375 830.125 C44.07191889 828.2541796 45.3452659 825.65715397 47.33984375 821.125 C50.01985008 811.27349527 50.91269776 800.93056626 52.02734375 790.8125 C52.15882813 789.63284668 52.2903125 788.45319336 52.42578125 787.23779297 C53.0877708 780.9035139 53.46143404 774.71217262 53.28833008 768.34301758 C53.33984375 766.125 53.33984375 766.125 54.33984375 763.125 C54.63078887 760.60953289 54.88020296 758.10551803 55.09594727 755.58349609 C55.16436829 754.817229 55.23278931 754.05096191 55.30328369 753.26147461 C55.52880808 750.72410736 55.74895319 748.18630685 55.96875 745.6484375 C56.12405553 743.8806479 56.27957104 742.11287674 56.43528748 740.34512329 C56.76125952 736.63474702 57.08455282 732.92414933 57.40600586 729.21337891 C57.81667338 724.47540623 58.23409954 719.73805835 58.65359592 715.00086021 C58.97641794 711.34636726 59.29550545 707.69155535 59.61350822 704.03664017 C59.765839 702.291173 59.9193307 700.54580672 60.07403755 698.80054855 C60.29086601 696.34830235 60.50261898 693.89566625 60.71313477 691.44287109 C60.80896095 690.3763884 60.80896095 690.3763884 60.90672302 689.2883606 C61.28469693 684.8071337 61.36787312 680.39581848 61.26422024 675.89898109 C61.33984375 674.125 61.33984375 674.125 62.33984375 673.125 C62.72750442 670.48890747 63.05840921 667.8655237 63.35546875 665.21875 C63.55369211 663.52488108 63.75210544 661.83103439 63.95068359 660.13720703 C64.05451355 659.23923401 64.15834351 658.34126099 64.26531982 657.41607666 C69.0776812 616.0272346 75.34548354 575.11261822 87.33984375 535.125 C87.59588379 534.25117676 87.85192383 533.37735352 88.11572266 532.47705078 C94.69200516 510.22406469 105.09278389 489.23709626 121.2109375 472.39453125 C123.35988769 470.20068938 123.35988769 470.20068938 125 467.82421875 C125.44214844 467.26347656 125.88429688 466.70273437 126.33984375 466.125 C126.99984375 466.125 127.65984375 466.125 128.33984375 466.125 C128.33984375 465.465 128.33984375 464.805 128.33984375 464.125 C148.43947323 446.93340202 171.07560188 440.40682232 197.33984375 442.125 C223.7193967 445.28746103 245.40264471 460.30433303 261.76953125 480.64453125 C290.41595254 518.59711989 300.49804056 566.01774802 307.33984375 612.125 C307.44449951 612.82411499 307.54915527 613.52322998 307.65698242 614.24353027 C314.15233727 657.92722291 317.09599253 702.22827723 320.78059196 746.21983147 C320.97921494 748.58662205 321.17901743 750.95330982 321.37928772 753.31996155 C321.44433471 754.08883414 321.50938169 754.85770674 321.5763998 755.6498785 C321.70598393 757.18128958 321.83563025 758.71269541 321.96534061 760.2440958 C322.2745305 763.9040599 322.57944683 767.56427937 322.87423706 771.22543335 C323.96189106 784.72814297 325.13959476 798.1883501 327.265625 811.57421875 C327.48511055 813.01146049 327.48511055 813.01146049 327.70903015 814.47773743 C329.12915635 822.77832905 331.70330191 829.62152628 338.33984375 835.125 C342.47075175 837.46956941 346.69222349 837.77501682 351.33984375 837.125 C374.70407571 830.49257286 390.49623463 807.55536175 401.90234375 787.4375 C410.25236236 772.37645848 417.17368995 756.75956416 422.58105469 740.41503906 C423.05375963 738.98840704 423.53029899 737.56303266 424.01269531 736.13964844 C435.54610596 702.0581606 441.97436791 666.41953097 448.15234375 631.0625 C448.35342743 629.91849731 448.55451111 628.77449463 448.76168823 627.5958252 C449.34209944 624.28236815 449.91454907 620.96763586 450.484375 617.65234375 C450.65701874 616.66888474 450.82966248 615.68542572 451.00753784 614.67216492 C452.02213826 608.69960547 452.68409683 602.78075249 453.08866882 596.73536682 C453.3116084 594.41843939 453.72091644 592.36120276 454.33984375 590.125 C454.6812272 588.30475394 455.0062144 586.48140226 455.3203125 584.65625 C455.60720947 582.99190918 455.60720947 582.99190918 455.89990234 581.29394531 C456.21048584 579.47781738 456.21048584 579.47781738 456.52734375 577.625 C456.74729004 576.34979492 456.96723633 575.07458984 457.19384766 573.76074219 C458.41989235 566.63289315 459.60942285 559.50014703 460.7578125 552.359375 C468.73185758 502.94127981 468.73185758 502.94127981 475.91821289 479.19482422 C476.8970595 475.95143201 477.33984375 473.57015387 477.33984375 470.125 C477.99984375 470.125 478.65984375 470.125 479.33984375 470.125 C479.5821875 468.88105469 479.82453125 467.63710938 480.07421875 466.35546875 C481.38213203 460.50745579 483.42807486 455.01735148 485.58984375 449.4375 C486.02167969 448.32044678 486.45351563 447.20339355 486.8984375 446.05249023 C494.08560841 427.82410352 502.54448277 410.07931213 511.79516602 392.81274414 C534.1201201 351.08235881 549.80546369 306.05555845 554.46484375 258.8125 C554.55121094 257.96494141 554.63757813 257.11738281 554.7265625 256.24414062 C554.93396049 254.20472702 555.13736086 252.16490746 555.33984375 250.125 C556.58378906 250.269375 557.82773437 250.41375 559.109375 250.5625 C569.41195966 251.72669829 579.34459309 252.5027273 589.7109375 251.859375 C590.87085205 251.78746948 590.87085205 251.78746948 592.05419922 251.71411133 C593.59668293 251.61451865 595.13872648 251.50780405 596.68017578 251.39331055 C602.12468168 251.01741897 602.12468168 251.01741897 604.33984375 252.125 C604.03433594 252.88941406 603.72882812 253.65382813 603.4140625 254.44140625 C602.27991451 258.33050282 601.84577296 261.94492564 601.45483398 265.96289062 C596.67575873 314.93394743 578.68453806 363.15505286 557.33984375 407.125 C556.76443848 408.3119043 556.1890332 409.49880859 555.59619141 410.72167969 C554.71119201 412.54659575 553.82605862 414.37144664 552.94075012 416.19621277 C552.05275719 418.02654936 551.16504088 419.85701993 550.27734375 421.6875 C549.98610626 422.28756866 549.69486877 422.88763733 549.39480591 423.50588989 C538.29681242 446.39432139 528.06114591 469.37463052 520.71484375 493.75 C520.31688599 495.04296997 520.31688599 495.04296997 519.91088867 496.36206055 C513.8254743 517.26332613 510.96540031 539.07043128 507.71914673 560.55465698 C507.01174043 565.23556677 506.29445722 569.91493068 505.57495117 574.59399414 C505.39365457 575.77306949 505.39365457 575.77306949 505.20869541 576.97596455 C504.96498596 578.56059203 504.72123103 580.14521252 504.47743034 581.72982597 C504.11470789 584.08837969 503.75254502 586.44701874 503.39051819 588.80567932 C475.39329908 771.14208366 475.39329908 771.14208366 422.33984375 838.125 C421.40228462 839.26036784 420.46478905 840.39578817 419.52734375 841.53125 C401.38616954 863.30944413 377.40220927 881.45657158 348.33984375 884.125 C330.51422634 885.02571695 315.20825113 878.81446149 302.03515625 867.0703125 C286.32142253 850.86743532 279.29861496 822.7111119 279.26953125 800.6171875 C279.29273438 799.46476563 279.3159375 798.31234375 279.33984375 797.125 C278.67984375 796.795 278.01984375 796.465 277.33984375 796.125 C277.30101074 795.196875 277.26217773 794.26875 277.22216797 793.3125 C276.52094066 778.27796143 275.06294131 763.30672752 273.66912079 748.32448196 C273.11743016 742.38434505 272.57260189 736.44357102 272.0261879 730.50294685 C271.82553872 728.32293499 271.62444852 726.14296413 271.42330933 723.96299744 C270.59961717 715.02489773 269.80844639 706.08456464 269.05078125 697.140625 C262.72218784 612.05026358 262.72218784 612.05026358 238.33984375 531.125 C237.8190625 529.95066406 237.29828125 528.77632812 236.76171875 527.56640625 C233.78916642 521.2254243 230.41480308 515.45985298 226.21484375 509.875 C225.80717773 509.32569824 225.39951172 508.77639648 224.97949219 508.21044922 C222.35913017 504.8784231 220.2233488 503.6156383 216.33984375 502.125 C215.64040362 500.80856325 214.97470728 499.4737663 214.33984375 498.125 C203.94660806 490.08939812 193.28315718 487.92730118 180.33984375 489.125 C166.43957787 492.10743253 155.51858873 501.91209353 147.90234375 513.5 C113.50732837 567.90228752 112.89641681 642.5565087 107.13671875 704.66796875 C107.03999186 705.70914101 106.94326496 706.75031326 106.84360695 707.82303619 C105.86556009 718.35273352 104.89269338 728.88280991 103.94666386 739.41543674 C102.17547392 759.09635329 100.29042444 778.7412917 97.71875 798.3359375 C97.61728605 799.11670717 97.51582211 799.89747684 97.41128349 800.7019062 C94.16128185 825.49193365 88.98864077 853.79137769 67.92578125 869.98046875 C56.90433579 877.06568369 44.66232833 878.86713282 31.828125 876.46875 C13.86506171 871.80197432 -0.36400571 861.70129526 -13.66015625 849.125 C-14.4490625 848.40054688 -15.23796875 847.67609375 -16.05078125 846.9296875 C-27.04430226 836.46811105 -35.9170038 823.99511471 -43.58984375 810.95068359 C-44.56481057 809.31229013 -45.60605475 807.71363573 -46.66015625 806.125 C-47.32015625 806.125 -47.98015625 806.125 -48.66015625 806.125 C-48.81871094 805.59132813 -48.97726563 805.05765625 -49.140625 804.5078125 C-51.0606954 798.37631697 -53.66249982 792.80040486 -56.66015625 787.125 C-57.32015625 787.125 -57.98015625 787.125 -58.66015625 787.125 C-58.76328125 786.26132812 -58.86640625 785.39765625 -58.97265625 784.5078125 C-59.7075052 780.89202166 -60.93176225 778.24904835 -62.66015625 775 C-64.41363732 771.6869324 -65.84097549 768.77407795 -66.66015625 765.125 C-68.23903961 761.08533447 -69.83340643 757.20832735 -72.47265625 753.75 C-72.86453125 753.21375 -73.25640625 752.6775 -73.66015625 752.125 C-73.33015625 751.135 -73.00015625 750.145 -72.66015625 749.125 C-73.03632896 747.18137044 -73.03632896 747.18137044 -73.8046875 745.1484375 C-74.06958984 744.395625 -74.33449219 743.6428125 -74.60742188 742.8671875 C-74.89294922 742.08601562 -75.17847656 741.30484375 -75.47265625 740.5 C-75.74658203 739.71109375 -76.02050781 738.9221875 -76.30273438 738.109375 C-77.52242666 733.83366901 -77.52242666 733.83366901 -80.66015625 731.125 C-80.61938965 730.1345166 -80.57862305 729.1440332 -80.53662109 728.12353516 C-80.54224254 723.9512421 -81.50253297 720.14085268 -82.63671875 716.1484375 C-83.06166281 714.59045142 -83.48646152 713.03242569 -83.91113281 711.47436523 C-84.13546997 710.66377655 -84.35980713 709.85318787 -84.59094238 709.01803589 C-96.84687031 664.56362808 -103.65386839 618.97391818 -108.4621582 573.16259766 C-112.92226424 530.70624073 -120.17460632 492.04786032 -139.15527344 453.46044922 C-139.83831543 452.06850342 -139.83831543 452.06850342 -140.53515625 450.6484375 C-140.94507813 449.82263184 -141.355 448.99682617 -141.77734375 448.14599609 C-142.66015625 446.125 -142.66015625 446.125 -142.66015625 444.125 C-143.98015625 443.795 -145.30015625 443.465 -146.66015625 443.125 C-146.33015625 442.135 -146.00015625 441.145 -145.66015625 440.125 C-146.66929885 437.63455062 -147.74022298 435.31634013 -148.95703125 432.9296875 C-149.3064679 432.22280792 -149.65590454 431.51592834 -150.01593018 430.78762817 C-151.13802588 428.52031333 -152.27303505 426.25981192 -153.41015625 424 C-154.89139396 421.04263229 -156.36540602 418.08182876 -157.83203125 415.1171875 C-158.1832605 414.41051941 -158.53448975 413.70385132 -158.8963623 412.97576904 C-160.71954011 409.2521005 -162.28122507 405.61168569 -163.48828125 401.6328125 C-163.875 400.47523438 -164.26171875 399.31765625 -164.66015625 398.125 C-165.65015625 397.795 -166.64015625 397.465 -167.66015625 397.125 C-167.66015625 396.135 -167.66015625 395.145 -167.66015625 394.125 C-168.29502087 392.20304733 -168.29502087 392.20304733 -169.19140625 390.18359375 C-169.66513672 389.06114258 -169.66513672 389.06114258 -170.1484375 387.91601562 C-170.64923828 386.75102539 -170.64923828 386.75102539 -171.16015625 385.5625 C-171.81957611 384.02088329 -172.47597723 382.47797075 -173.12890625 380.93359375 C-173.42216797 380.25095459 -173.71542969 379.56831543 -174.01757812 378.86499023 C-174.66015625 377.125 -174.66015625 377.125 -174.66015625 375.125 C-175.65015625 374.795 -176.64015625 374.465 -177.66015625 374.125 C-177.66015625 372.805 -177.66015625 371.485 -177.66015625 370.125 C-178.31451772 368.05489966 -179.04541107 366.00852993 -179.8203125 363.98046875 C-180.28083008 362.7584375 -180.74134766 361.53640625 -181.21582031 360.27734375 C-181.46174927 359.6313623 -181.70767822 358.98538086 -181.96105957 358.31982422 C-197.04255952 318.5698346 -206.65868165 277.66138942 -208.66015625 235.125 C-208.70156738 234.29871094 -208.74297852 233.47242188 -208.78564453 232.62109375 C-209.61949435 213.61434615 -207.62905149 193.42560777 -203.2109375 174.9375 C-202.62333542 171.93697876 -202.56484754 169.17487868 -202.66015625 166.125 C-202.00015625 166.125 -201.34015625 166.125 -200.66015625 166.125 C-200.56001221 165.47015625 -200.45986816 164.8153125 -200.35668945 164.140625 C-199.15309151 156.87671583 -197.22307222 150.08572929 -194.84765625 143.125 C-194.51701172 142.12210938 -194.18636719 141.11921875 -193.84570312 140.0859375 C-191.79386251 133.98948975 -189.41697987 128.18970425 -186.60668945 122.40234375 C-185.46825632 120.07432779 -185.46825632 120.07432779 -185.66015625 117.125 C-185.00015625 117.125 -184.34015625 117.125 -183.66015625 117.125 C-183.41910156 116.30515625 -183.17804688 115.4853125 -182.9296875 114.640625 C-175.28099901 93.4596415 -158.80924655 72.54004074 -142.66015625 57.125 C-141.83515625 56.3 -141.01015625 55.475 -140.16015625 54.625 C-139.33515625 53.8 -138.51015625 52.975 -137.66015625 52.125 C-137.17289062 51.60292969 -136.685625 51.08085937 -136.18359375 50.54296875 C-131.19271982 45.3037338 -125.60152075 41.22913458 -119.66015625 37.125 C-119.10295898 36.7340918 -118.54576172 36.34318359 -117.97167969 35.94042969 C-82.72939272 11.27670579 -42.60428055 1.45500211 0 0 Z M-79.66015625 728.125 C-78.66015625 730.125 -78.66015625 730.125 -78.66015625 730.125 Z M-71.66015625 752.125 C-70.66015625 754.125 -70.66015625 754.125 -70.66015625 754.125 Z " fill="#2896df" transform="translate(250.66015625,137.875)"/>
<path d="M0 0 C6.03857557 1.56292544 9.46709219 5.01236545 13 10 C14.87023794 13.20882155 15.51695638 16.1569567 16.11328125 19.8125 C16.30639893 20.96032959 16.4995166 22.10815918 16.69848633 23.29077148 C16.90111084 24.51481689 17.10373535 25.7388623 17.3125 27 C24.06784288 65.93714942 36.81996546 105.1116806 70.4440918 129.10791016 C83.23026545 137.77905105 101.26758337 147 117 147 C117 147.66 117 148.32 117 149 C118.05316406 149.09925781 119.10632813 149.19851562 120.19140625 149.30078125 C126.23244754 150.06239108 132.05867654 151.63832797 137.9375 153.1875 C139.06607422 153.46658203 140.19464844 153.74566406 141.35742188 154.03320312 C150.30946159 156.39229213 158.89026117 159.82441787 164 168 C166.49147997 173.48125594 167.1101631 179.35042191 165.34765625 185.14453125 C161.87262313 192.94471289 156.03576096 196.92590035 148.27392578 199.93359375 C140.18982904 202.56680289 131.77272782 204.12660163 123.47119141 205.921875 C108.27246988 209.22786997 92.6084118 212.73537918 78.9375 220.4375 C77.88550415 221.01371094 77.88550415 221.01371094 76.81225586 221.6015625 C71.45149442 224.60114738 66.6190549 227.94056137 62 232 C61.2059375 232.64066406 60.411875 233.28132812 59.59375 233.94140625 C33.1800752 256.07508745 23.5610209 293.88742028 18.4375 326.4375 C17.25980944 333.65502409 15.82386066 340.73219876 10.0390625 345.67578125 C2.77834166 350.46677734 -4.44000989 350.7225314 -13 350 C-19.85578636 348.15844571 -24.51169625 344.59356721 -28.55932617 338.74804688 C-30.217773 335.58460382 -30.69293101 333.00348383 -31.17578125 329.46875 C-31.36052002 328.19346436 -31.54525879 326.91817871 -31.7355957 325.60424805 C-31.87585678 324.59942886 -31.87585678 324.59942886 -32.01895142 323.5743103 C-36.07150502 294.93764112 -44.36184306 262.7787843 -66 241.9375 C-66.99 240.9784375 -66.99 240.9784375 -68 240 C-68 239.34 -68 238.68 -68 238 C-68.55945313 237.76152344 -69.11890625 237.52304688 -69.6953125 237.27734375 C-73.44257918 235.20046882 -76.27857846 232.12994181 -79.3671875 229.19140625 C-82.11215454 226.90664882 -84.77522883 225.50694347 -88 224 C-89.485 223.01 -89.485 223.01 -91 222 C-109.68025774 209.59630886 -132.28773248 204.46268926 -154.1184082 200.82397461 C-161.14820466 199.59578905 -167.77295727 198.22704273 -173 193 C-175.57061311 192.35232207 -175.57061311 192.35232207 -178 192 C-177.67 191.01 -177.34 190.02 -177 189 C-177.28875 188.29875 -177.5775 187.5975 -177.875 186.875 C-180.42124816 180.36792136 -180.54117231 174.58950481 -178 168.06640625 C-174.16137424 160.13424598 -167.78008855 156.80075927 -159.87890625 153.82421875 C-150.88284982 150.85135618 -141.7196056 148.72407929 -132.5 146.5625 C-112.18111477 141.7561038 -91.97471299 135.01008095 -76 121 C-75.236875 120.36707031 -74.47375 119.73414062 -73.6875 119.08203125 C-70.75503448 116.63625678 -70.75503448 116.63625678 -68 114 C-68 113.34 -68 112.68 -68 112 C-67.01 112 -66.02 112 -65 112 C-64.75507812 111.45859375 -64.51015625 110.9171875 -64.2578125 110.359375 C-62.7072633 107.45089141 -60.81586892 104.91446813 -58.875 102.25 C-42.38302638 78.86101816 -35.66204466 50.11679165 -30.82397461 22.3359375 C-29.15369933 13.25793582 -26.48936802 7.57718895 -19 2 C-13.61033639 -1.59310907 -6.28995394 -0.49527196 0 0 Z M-7 102 C-10.47798342 105.85699443 -12.5670167 109.92033278 -14.75 114.5625 C-20.18047508 125.73223188 -27.09192918 135.44512918 -35 145 C-35.43957031 145.56332031 -35.87914062 146.12664062 -36.33203125 146.70703125 C-46.55399647 159.66397044 -61.86500752 168.90610389 -76 177 C-72.10937704 180.23106973 -68.04337942 182.99979406 -63.8125 185.75 C-57.59143895 189.85280298 -51.6735789 194.15600323 -46 199 C-44.77216797 200.04414063 -44.77216797 200.04414063 -43.51953125 201.109375 C-28.83642124 213.94855956 -16.63184298 229.47130133 -8 247 C-5.79084171 244.20813619 -4.14818847 241.43125662 -2.5625 238.25 C11.77888202 211.69188515 34.74240278 193.46383504 60 178 C52.7281143 171.32621644 52.7281143 171.32621644 44 168 C44 167.34 44 166.68 44 166 C42.15348336 164.32278885 42.15348336 164.32278885 39.8125 162.625 C38.57306641 161.68527344 38.57306641 161.68527344 37.30859375 160.7265625 C36.54675781 160.15679687 35.78492188 159.58703125 35 159 C25.76954165 151.96726983 18.96332338 143.17586757 12 134 C11.34644531 133.15308594 10.69289063 132.30617187 10.01953125 131.43359375 C5.04766411 124.70962697 1.49021116 117.34597261 -2.11523438 109.83398438 C-3.38186442 107.20845323 -4.68989182 104.60404218 -6 102 C-6.33 102 -6.66 102 -7 102 Z " fill="#2896df" transform="translate(844,0)"/>
<path d="M0 0 C0.66 0.33 1.32 0.66 2 1 C-3.94 6.94 -9.88 12.88 -16 19 C-16 14.89253434 -14.36039564 13.80245139 -11.625 10.8125 C-10.81289063 9.91144531 -10.00078125 9.01039063 -9.1640625 8.08203125 C-7 6 -7 6 -5 6 C-5 5.34 -5 4.68 -5 4 C-3.37373596 2.61767557 -1.7074998 1.28062485 0 0 Z " fill="#2896df" transform="translate(384,598)"/>
<path d="M0 0 C0.66 0.33 1.32 0.66 2 1 C-0.97 3.97 -3.94 6.94 -7 10 C-7.33 9.34 -7.66 8.68 -8 8 C-3.375 2.25 -3.375 2.25 0 0 Z " fill="#2896df" transform="translate(675,158)"/>
<path d="M0 0 C2.64 0 5.28 0 8 0 C4.86501708 1.85776765 2.62528568 2.20140476 -1 2 C-0.67 1.34 -0.34 0.68 0 0 Z " fill="#2896df" transform="translate(819,0)"/>
<path d="M0 0 C1.0625 1.8125 1.0625 1.8125 2 4 C1.67 4.99 1.34 5.98 1 7 C0.67 4.69 0.34 2.38 0 0 Z " fill="#2896df" transform="translate(530,952)"/>
<path d="M0 0 C0.99 0.33 1.98 0.66 3 1 C1.68 1.33 0.36 1.66 -1 2 C-0.67 1.34 -0.34 0.68 0 0 Z " fill="#2896df" transform="translate(636,944)"/>
<path d="M0 0 C0.66 0 1.32 0 2 0 C2 1.65 2 3.3 2 5 C0 1.125 0 1.125 0 0 Z " fill="#2896df" transform="translate(136,676)"/>
<path d="M0 0 C1.65 0 3.3 0 5 0 C5 0.33 5 0.66 5 1 C3.35 1 1.7 1 0 1 C0 0.67 0 0.34 0 0 Z " fill="#2896df" transform="translate(539,1023)"/>
<path d="M0 0 C0.33 0 0.66 0 1 0 C1 1.65 1 3.3 1 5 C0.67 5 0.34 5 0 5 C0 3.35 0 1.7 0 0 Z " fill="#21201F" transform="translate(528,936)"/>
<path d="M0 0 C0.99 0.495 0.99 0.495 2 1 C1.01 2.485 1.01 2.485 0 4 C0 2.68 0 1.36 0 0 Z " fill="#232223" transform="translate(800,418)"/>
<path d="M0 0 C1.65 0 3.3 0 5 0 C5 0.33 5 0.66 5 1 C3.35 1 1.7 1 0 1 C0 0.67 0 0.34 0 0 Z " fill="#242424" transform="translate(421,176)"/>
<path d="M0 0 C1.65 0 3.3 0 5 0 C5 0.33 5 0.66 5 1 C3.35 1 1.7 1 0 1 C0 0.67 0 0.34 0 0 Z " fill="#232222" transform="translate(949,144)"/>
<path d="M0 0 C0.99 0.495 0.99 0.495 2 1 C1.67 1.66 1.34 2.32 1 3 C0.67 2.01 0.34 1.02 0 0 Z " fill="#262525" transform="translate(545,997)"/>
<path d="M0 0 C0.66 0 1.32 0 2 0 C1.67 0.99 1.34 1.98 1 3 C0.67 2.01 0.34 1.02 0 0 Z " fill="#232222" transform="translate(208,957)"/>
<path d="M0 0 C1 4 1 4 1 4 Z " fill="#20201F" transform="translate(351,919)"/>
<path d="M0 0 C1 4 1 4 1 4 Z " fill="#1F1F1E" transform="translate(514,792)"/>
<path d="M0 0 C1 4 1 4 1 4 Z " fill="#212121" transform="translate(146,753)"/>
<path d="M0 0 C1 4 1 4 1 4 Z " fill="#232221" transform="translate(138,683)"/>
<path d="M0 0 C1 4 1 4 1 4 Z " fill="#222122" transform="translate(136,671)"/>
<path d="M0 0 C1 4 1 4 1 4 Z " fill="#1D1B1C" transform="translate(713,668)"/>
<path d="M0 0 C0.66 0 1.32 0 2 0 C1.67 0.99 1.34 1.98 1 3 C0.67 2.01 0.34 1.02 0 0 Z " fill="#1C1C1B" transform="translate(482,659)"/>
<path d="M0 0 C0.66 0 1.32 0 2 0 C1.67 0.99 1.34 1.98 1 3 C0.67 2.01 0.34 1.02 0 0 Z " fill="#2A2C2A" transform="translate(398,584)"/>
<path d="M0 0 C0.99 0.495 0.99 0.495 2 1 C1.67 1.66 1.34 2.32 1 3 C0.67 2.01 0.34 1.02 0 0 Z " fill="#212020" transform="translate(48,434)"/>
<path d="M0 0 C0.99 0.33 1.98 0.66 3 1 C2.01 1.33 1.02 1.66 0 2 C0 1.34 0 0.68 0 0 Z " fill="#1B1B1B" transform="translate(877,192)"/>
<path d="M0 0 C4 1 4 1 4 1 Z " fill="#262726" transform="translate(547,144)"/>
<path d="M0 0 C4 1 4 1 4 1 Z " fill="#262423" transform="translate(318,144)"/>
<path d="M0 0 C0.66 0 1.32 0 2 0 C1.67 0.66 1.34 1.32 1 2 C0.67 1.34 0.34 0.68 0 0 Z " fill="#212120" transform="translate(216,965)"/>
<path d="" fill="#1C1B1B" transform="translate(0,0)"/>
<path d="" fill="#211E1F" transform="translate(0,0)"/>
<path d="" fill="#1F201E" transform="translate(0,0)"/>
<path d="M0 0 C3 1 3 1 3 1 Z " fill="#201F1E" transform="translate(304,869)"/>
<path d="" fill="#1F1E1E" transform="translate(0,0)"/>
<path d="" fill="#252423" transform="translate(0,0)"/>
<path d="M0 0 C0.66 0 1.32 0 2 0 C1.67 0.66 1.34 1.32 1 2 C0.67 1.34 0.34 0.68 0 0 Z " fill="#222422" transform="translate(144,744)"/>
<path d="" fill="#201E1E" transform="translate(0,0)"/>
<path d="" fill="#1F201F" transform="translate(0,0)"/>
<path d="" fill="#202021" transform="translate(0,0)"/>
<path d="" fill="#1E1C1D" transform="translate(0,0)"/>
<path d="" fill="#222220" transform="translate(0,0)"/>
<path d="" fill="#222120" transform="translate(0,0)"/>
<path d="M0 0 C0.33 0.66 0.66 1.32 1 2 C0.34 1.67 -0.32 1.34 -1 1 C-0.67 0.67 -0.34 0.34 0 0 Z " fill="#2896df" transform="translate(113,596)"/>
<path d="" fill="#20201F" transform="translate(0,0)"/>
<path d="" fill="#232322" transform="translate(0,0)"/>
<path d="" fill="#21201F" transform="translate(0,0)"/>
<path d="" fill="#1D1C1C" transform="translate(0,0)"/>
<path d="M0 0 C0.66 0.66 1.32 1.32 2 2 C1.34 2 0.68 2 0 2 C0 1.34 0 0.68 0 0 Z " fill="#201F1E" transform="translate(827,349)"/>
<path d="M0 0 C0.66 0.66 1.32 1.32 2 2 C1.34 2 0.68 2 0 2 C0 1.34 0 0.68 0 0 Z " fill="#201E1F" transform="translate(347,205)"/>
<path d="" fill="#242524" transform="translate(0,0)"/>
<path d="M0 0 C0.66 0 1.32 0 2 0 C1.67 0.66 1.34 1.32 1 2 C0.67 1.34 0.34 0.68 0 0 Z " fill="#2896df" transform="translate(539,198)"/>
<path d="M0 0 C3 1 3 1 3 1 Z " fill="#272827" transform="translate(126,176)"/>
<path d="M0 0 C3 1 3 1 3 1 Z " fill="#272725" transform="translate(463,168)"/>
<path d="M0 0 C3 1 3 1 3 1 Z " fill="#242525" transform="translate(188,145)"/>
<path d="M0 0 C3 1 3 1 3 1 Z " fill="#232422" transform="translate(765,120)"/>
<path d="M0 0 C2 1 2 1 2 1 Z " fill="#242423" transform="translate(580,1023)"/>
<path d="M0 0 C2 1 2 1 2 1 Z " fill="#333332" transform="translate(325,1023)"/>
<path d="M0 0 C2 1 2 1 2 1 Z " fill="#201E1E" transform="translate(587,1022)"/>
<path d="M0 0 C2 1 2 1 2 1 Z " fill="#232122" transform="translate(258,1005)"/>
<path d="" fill="#262423" transform="translate(0,0)"/>
<path d="" fill="#232222" transform="translate(0,0)"/>
<path d="" fill="#262525" transform="translate(0,0)"/>
<path d="" fill="#2896df" transform="translate(0,0)"/>
<path d="M0 0 C2 1 2 1 2 1 Z " fill="#1F1E1E" transform="translate(609,968)"/>
<path d="" fill="#212122" transform="translate(0,0)"/>
<path d="M0 0 C2 1 2 1 2 1 Z " fill="#232322" transform="translate(196,934)"/>
<path d="" fill="#1E1F1D" transform="translate(0,0)"/>
<path d="" fill="#1D1C1C" transform="translate(0,0)"/>
<path d="" fill="#1E1E1D" transform="translate(0,0)"/>
<path d="" fill="#1F1D1E" transform="translate(0,0)"/>
<path d="" fill="#211E1E" transform="translate(0,0)"/>
<path d="" fill="#202020" transform="translate(0,0)"/>
<path d="" fill="#222020" transform="translate(0,0)"/>
<path d="" fill="#1C1C1C" transform="translate(0,0)"/>
<path d="M0 0 C2 1 2 1 2 1 Z " fill="#232121" transform="translate(520,867)"/>
<path d="" fill="#1F1E1F" transform="translate(0,0)"/>
<path d="" fill="#21201F" transform="translate(0,0)"/>
<path d="" fill="#211F20" transform="translate(0,0)"/>
<path d="" fill="#1F1E1E" transform="translate(0,0)"/>
<path d="" fill="#232321" transform="translate(0,0)"/>
<path d="" fill="#1C1B1C" transform="translate(0,0)"/>
<path d="" fill="#221F1F" transform="translate(0,0)"/>
<path d="" fill="#242422" transform="translate(0,0)"/>
<path d="" fill="#1F1E1E" transform="translate(0,0)"/>
<path d="" fill="#1F1F1C" transform="translate(0,0)"/>
<path d="" fill="#201E1F" transform="translate(0,0)"/>
<path d="" fill="#1F1D1D" transform="translate(0,0)"/>
<path d="" fill="#1F1F1E" transform="translate(0,0)"/>
<path d="" fill="#1A1C1C" transform="translate(0,0)"/>
<path d="" fill="#1D1C1A" transform="translate(0,0)"/>
<path d="" fill="#232322" transform="translate(0,0)"/>
<path d="" fill="#232122" transform="translate(0,0)"/>
<path d="" fill="#1F1F1F" transform="translate(0,0)"/>
<path d="" fill="#1D1E1C" transform="translate(0,0)"/>
<path d="" fill="#252525" transform="translate(0,0)"/>
<path d="" fill="#1F1D1C" transform="translate(0,0)"/>
<path d="" fill="#1D1D1C" transform="translate(0,0)"/>
<path d="" fill="#201E1D" transform="translate(0,0)"/>
<path d="" fill="#202121" transform="translate(0,0)"/>
<path d="" fill="#1C1C1A" transform="translate(0,0)"/>
<path d="" fill="#232121" transform="translate(0,0)"/>
<path d="" fill="#1D1C1C" transform="translate(0,0)"/>
<path d="" fill="#1B1B1A" transform="translate(0,0)"/>
<path d="" fill="#1C1B1C" transform="translate(0,0)"/>
<path d="" fill="#1C1B1C" transform="translate(0,0)"/>
<path d="" fill="#1D1E1E" transform="translate(0,0)"/>
<path d="" fill="#222121" transform="translate(0,0)"/>
<path d="" fill="#2896df" transform="translate(0,0)"/>
<path d="M0 0 C2 1 2 1 2 1 Z " fill="#1E1D1E" transform="translate(450,629)"/>
<path d="M0 0 C2 1 2 1 2 1 Z " fill="#202020" transform="translate(442,627)"/>
<path d="" fill="#222222" transform="translate(0,0)"/>
<path d="" fill="#242323" transform="translate(0,0)"/>
<path d="M0 0 C2 1 2 1 2 1 Z " fill="#222223" transform="translate(105,583)"/>
<path d="" fill="#222222" transform="translate(0,0)"/>
<path d="" fill="#222321" transform="translate(0,0)"/>
<path d="" fill="#222120" transform="translate(0,0)"/>
<path d="" fill="#2896df" transform="translate(0,0)"/>
<path d="" fill="#212320" transform="translate(0,0)"/>
<path d="" fill="#232221" transform="translate(0,0)"/>
<path d="" fill="#232322" transform="translate(0,0)"/>
<path d="" fill="#1F1F1E" transform="translate(0,0)"/>
<path d="" fill="#1E1E1D" transform="translate(0,0)"/>
<path d="" fill="#242524" transform="translate(0,0)"/>
<path d="" fill="#232220" transform="translate(0,0)"/>
<path d="" fill="#201F1E" transform="translate(0,0)"/>
<path d="" fill="#252325" transform="translate(0,0)"/>
<path d="M0 0 C2 1 2 1 2 1 Z " fill="#282828" transform="translate(810,387)"/>
<path d="" fill="#1D1D1C" transform="translate(0,0)"/>
<path d="" fill="#20201E" transform="translate(0,0)"/>
<path d="" fill="#1F1E1F" transform="translate(0,0)"/>
<path d="" fill="#201F1F" transform="translate(0,0)"/>
<path d="M0 0 C2 1 2 1 2 1 Z " fill="#222422" transform="translate(844,350)"/>
<path d="" fill="#242323" transform="translate(0,0)"/>
<path d="" fill="#2896df" transform="translate(0,0)"/>
<path d="" fill="#242422" transform="translate(0,0)"/>
<path d="" fill="#1E1C1C" transform="translate(0,0)"/>
<path d="M0 0 C2 1 2 1 2 1 Z " fill="#2A2B29" transform="translate(525,271)"/>
<path d="" fill="#1D1D1B" transform="translate(0,0)"/>
<path d="" fill="#1B1A18" transform="translate(0,0)"/>
<path d="M0 0 C2 1 2 1 2 1 Z " fill="#282726" transform="translate(505,267)"/>
<path d="M0 0 C2 1 2 1 2 1 Z " fill="#1C1B1B" transform="translate(792,265)"/>
<path d="" fill="#1D1F1C" transform="translate(0,0)"/>
<path d="" fill="#242425" transform="translate(0,0)"/>
<path d="" fill="#2896df" transform="translate(0,0)"/>
<path d="" fill="#1A1B1A" transform="translate(0,0)"/>
<path d="M0 0 C2 1 2 1 2 1 Z " fill="#1D1C1B" transform="translate(511,217)"/>
<path d="M0 0 C2 1 2 1 2 1 Z " fill="#181917" transform="translate(503,216)"/>
<path d="" fill="#262727" transform="translate(0,0)"/>
<path d="M0 0 C2 1 2 1 2 1 Z " fill="#232322" transform="translate(92,209)"/>
<path d="" fill="#20211F" transform="translate(0,0)"/>
<path d="M0 0 C2 1 2 1 2 1 Z " fill="#211F1F" transform="translate(317,196)"/>
<path d="M0 0 C2 1 2 1 2 1 Z " fill="#1C1C1B" transform="translate(874,195)"/>
<path d="M0 0 C2 1 2 1 2 1 Z " fill="#21211F" transform="translate(280,189)"/>
<path d="M0 0 C2 1 2 1 2 1 Z " fill="#21211F" transform="translate(265,188)"/>
<path d="" fill="#252624" transform="translate(0,0)"/>
<path d="M0 0 C2 1 2 1 2 1 Z " fill="#252524" transform="translate(432,176)"/>
<path d="M0 0 C2 1 2 1 2 1 Z " fill="#272A28" transform="translate(121,176)"/>
<path d="" fill="#252525" transform="translate(0,0)"/>
<path d="M0 0 C2 1 2 1 2 1 Z " fill="#282727" transform="translate(669,160)"/>
<path d="M0 0 C2 1 2 1 2 1 Z " fill="#272827" transform="translate(151,160)"/>
<path d="M0 0 C2 1 2 1 2 1 Z " fill="#272727" transform="translate(148,160)"/>
<path d="M0 0 C2 1 2 1 2 1 Z " fill="#262524" transform="translate(354,154)"/>
<path d="M0 0 C2 1 2 1 2 1 Z " fill="#272725" transform="translate(352,153)"/>
<path d="M0 0 C2 1 2 1 2 1 Z " fill="#292827" transform="translate(508,152)"/>
<path d="M0 0 C2 1 2 1 2 1 Z " fill="#252524" transform="translate(349,152)"/>
<path d="M0 0 C2 1 2 1 2 1 Z " fill="#292827" transform="translate(168,152)"/>
<path d="" fill="#262524" transform="translate(0,0)"/>
<path d="M0 0 C2 1 2 1 2 1 Z " fill="#2C2C29" transform="translate(527,147)"/>
<path d="M0 0 C2 1 2 1 2 1 Z " fill="#282627" transform="translate(332,147)"/>
<path d="M0 0 C2 1 2 1 2 1 Z " fill="#252425" transform="translate(711,145)"/>
<path d="M0 0 C2 1 2 1 2 1 Z " fill="#262526" transform="translate(192,144)"/>
<path d="M0 0 C2 1 2 1 2 1 Z " fill="#282826" transform="translate(185,144)"/>
<path d="" fill="#2A2A2A" transform="translate(0,0)"/>
<path d="" fill="#2A2C2A" transform="translate(0,0)"/>
<path d="M0 0 C2 1 2 1 2 1 Z " fill="#1B1B19" transform="translate(852,134)"/>
<path d="" fill="#20201F" transform="translate(0,0)"/>
<path d="" fill="#1D1E1E" transform="translate(0,0)"/>
<path d="" fill="#232423" transform="translate(0,0)"/>
<path d="" fill="#272727" transform="translate(0,0)"/>
<path d="" fill="#262626" transform="translate(0,0)"/>
<path d="M0 0 C2 1 2 1 2 1 Z " fill="#252625" transform="translate(847,0)"/>
<path d="" fill="#2A2927" transform="translate(0,0)"/>
<path d="" fill="#201D1E" transform="translate(0,0)"/>
<path d="" fill="#353434" transform="translate(0,0)"/>
<path d="" fill="#383736" transform="translate(0,0)"/>
<path d="" fill="#2C2E2B" transform="translate(0,0)"/>
<path d="" fill="#313130" transform="translate(0,0)"/>
<path d="" fill="#222220" transform="translate(0,0)"/>
<path d="" fill="#232221" transform="translate(0,0)"/>
<path d="" fill="#282626" transform="translate(0,0)"/>
<path d="" fill="#262527" transform="translate(0,0)"/>
<path d="" fill="#272624" transform="translate(0,0)"/>
<path d="" fill="#202021" transform="translate(0,0)"/>
<path d="" fill="#282725" transform="translate(0,0)"/>
<path d="" fill="#242322" transform="translate(0,0)"/>
<path d="" fill="#1F2220" transform="translate(0,0)"/>
<path d="" fill="#292727" transform="translate(0,0)"/>
<path d="" fill="#2A2829" transform="translate(0,0)"/>
<path d="" fill="#212322" transform="translate(0,0)"/>
<path d="" fill="#252526" transform="translate(0,0)"/>
<path d="" fill="#262525" transform="translate(0,0)"/>
<path d="" fill="#272526" transform="translate(0,0)"/>
<path d="" fill="#262825" transform="translate(0,0)"/>
<path d="" fill="#292929" transform="translate(0,0)"/>
<path d="" fill="#1F201D" transform="translate(0,0)"/>
<path d="" fill="#262524" transform="translate(0,0)"/>
<path d="" fill="#262524" transform="translate(0,0)"/>
<path d="" fill="#232522" transform="translate(0,0)"/>
<path d="" fill="#282526" transform="translate(0,0)"/>
<path d="" fill="#232625" transform="translate(0,0)"/>
<path d="" fill="#262524" transform="translate(0,0)"/>
<path d="" fill="#252423" transform="translate(0,0)"/>
<path d="" fill="#252423" transform="translate(0,0)"/>
<path d="" fill="#242324" transform="translate(0,0)"/>
<path d="" fill="#262525" transform="translate(0,0)"/>
<path d="" fill="#232321" transform="translate(0,0)"/>
<path d="" fill="#292828" transform="translate(0,0)"/>
<path d="" fill="#2C2B2A" transform="translate(0,0)"/>
<path d="" fill="#292926" transform="translate(0,0)"/>
<path d="" fill="#222421" transform="translate(0,0)"/>
<path d="" fill="#262523" transform="translate(0,0)"/>
<path d="" fill="#252625" transform="translate(0,0)"/>
<path d="" fill="#252424" transform="translate(0,0)"/>
<path d="" fill="#262325" transform="translate(0,0)"/>
<path d="" fill="#1E1F20" transform="translate(0,0)"/>
<path d="" fill="#1F1D1C" transform="translate(0,0)"/>
<path d="" fill="#212120" transform="translate(0,0)"/>
<path d="" fill="#201F21" transform="translate(0,0)"/>
<path d="" fill="#252522" transform="translate(0,0)"/>
<path d="" fill="#1D1C1C" transform="translate(0,0)"/>
<path d="" fill="#1F1E1D" transform="translate(0,0)"/>
<path d="" fill="#2896df" transform="translate(0,0)"/>
<path d="" fill="#1C1D1D" transform="translate(0,0)"/>
<path d="" fill="#232324" transform="translate(0,0)"/>
<path d="" fill="#21221F" transform="translate(0,0)"/>
<path d="" fill="#22211F" transform="translate(0,0)"/>
<path d="" fill="#201E1F" transform="translate(0,0)"/>
<path d="" fill="#1D1D1A" transform="translate(0,0)"/>
<path d="" fill="#202223" transform="translate(0,0)"/>
<path d="" fill="#232220" transform="translate(0,0)"/>
<path d="" fill="#1F1E1C" transform="translate(0,0)"/>
<path d="" fill="#201F1D" transform="translate(0,0)"/>
<path d="" fill="#1C1D1D" transform="translate(0,0)"/>
<path d="" fill="#222222" transform="translate(0,0)"/>
<path d="" fill="#21201F" transform="translate(0,0)"/>
<path d="" fill="#222423" transform="translate(0,0)"/>
<path d="" fill="#232220" transform="translate(0,0)"/>
<path d="" fill="#1D1E1B" transform="translate(0,0)"/>
<path d="" fill="#221E1E" transform="translate(0,0)"/>
<path d="" fill="#181413" transform="translate(0,0)"/>
<path d="" fill="#2896df" transform="translate(0,0)"/>
<path d="" fill="#242425" transform="translate(0,0)"/>
<path d="" fill="#232321" transform="translate(0,0)"/>
<path d="" fill="#242521" transform="translate(0,0)"/>
<path d="" fill="#201F1F" transform="translate(0,0)"/>
<path d="" fill="#221E1F" transform="translate(0,0)"/>
<path d="" fill="#232322" transform="translate(0,0)"/>
<path d="" fill="#1F1D1E" transform="translate(0,0)"/>
<path d="" fill="#222423" transform="translate(0,0)"/>
<path d="" fill="#201F1F" transform="translate(0,0)"/>
<path d="" fill="#21211F" transform="translate(0,0)"/>
<path d="" fill="#1F1C1B" transform="translate(0,0)"/>
<path d="" fill="#201F20" transform="translate(0,0)"/>
<path d="" fill="#1C1B1A" transform="translate(0,0)"/>
<path d="" fill="#1F1F1E" transform="translate(0,0)"/>
<path d="" fill="#242324" transform="translate(0,0)"/>
<path d="" fill="#212321" transform="translate(0,0)"/>
<path d="" fill="#1C1D1D" transform="translate(0,0)"/>
<path d="" fill="#21201E" transform="translate(0,0)"/>
<path d="" fill="#252423" transform="translate(0,0)"/>
<path d="" fill="#1E1E1D" transform="translate(0,0)"/>
<path d="" fill="#212323" transform="translate(0,0)"/>
<path d="" fill="#201E1D" transform="translate(0,0)"/>
<path d="" fill="#201F1E" transform="translate(0,0)"/>
<path d="" fill="#201D1F" transform="translate(0,0)"/>
<path d="" fill="#212120" transform="translate(0,0)"/>
<path d="" fill="#1C1A19" transform="translate(0,0)"/>
<path d="" fill="#1C201D" transform="translate(0,0)"/>
<path d="" fill="#232421" transform="translate(0,0)"/>
<path d="" fill="#201F1F" transform="translate(0,0)"/>
<path d="" fill="#242423" transform="translate(0,0)"/>
<path d="" fill="#2896df" transform="translate(0,0)"/>
<path d="" fill="#212021" transform="translate(0,0)"/>
<path d="" fill="#201F1E" transform="translate(0,0)"/>
<path d="" fill="#222121" transform="translate(0,0)"/>
<path d="" fill="#22211F" transform="translate(0,0)"/>
<path d="" fill="#1F1D1C" transform="translate(0,0)"/>
<path d="" fill="#201E1D" transform="translate(0,0)"/>
<path d="" fill="#201D1F" transform="translate(0,0)"/>
<path d="" fill="#201F21" transform="translate(0,0)"/>
<path d="" fill="#211F1E" transform="translate(0,0)"/>
<path d="" fill="#22221F" transform="translate(0,0)"/>
<path d="" fill="#232122" transform="translate(0,0)"/>
<path d="" fill="#222120" transform="translate(0,0)"/>
<path d="" fill="#1F1E1C" transform="translate(0,0)"/>
<path d="" fill="#22211F" transform="translate(0,0)"/>
<path d="" fill="#1F1E1F" transform="translate(0,0)"/>
<path d="" fill="#212020" transform="translate(0,0)"/>
<path d="" fill="#1D1C1C" transform="translate(0,0)"/>
<path d="" fill="#20201E" transform="translate(0,0)"/>
<path d="" fill="#201F20" transform="translate(0,0)"/>
<path d="" fill="#1E1F1E" transform="translate(0,0)"/>
<path d="" fill="#201E1F" transform="translate(0,0)"/>
<path d="" fill="#1E1F1D" transform="translate(0,0)"/>
<path d="" fill="#20211F" transform="translate(0,0)"/>
<path d="" fill="#242323" transform="translate(0,0)"/>
<path d="" fill="#252624" transform="translate(0,0)"/>
<path d="" fill="#20211F" transform="translate(0,0)"/>
<path d="" fill="#252221" transform="translate(0,0)"/>
<path d="" fill="#201F1F" transform="translate(0,0)"/>
<path d="" fill="#1F201D" transform="translate(0,0)"/>
<path d="" fill="#242321" transform="translate(0,0)"/>
<path d="" fill="#1F201F" transform="translate(0,0)"/>
<path d="" fill="#222021" transform="translate(0,0)"/>
<path d="" fill="#212020" transform="translate(0,0)"/>
<path d="" fill="#202020" transform="translate(0,0)"/>
<path d="" fill="#202120" transform="translate(0,0)"/>
<path d="" fill="#242524" transform="translate(0,0)"/>
<path d="" fill="#202120" transform="translate(0,0)"/>
<path d="" fill="#1E1E1F" transform="translate(0,0)"/>
<path d="" fill="#262424" transform="translate(0,0)"/>
<path d="" fill="#242422" transform="translate(0,0)"/>
<path d="" fill="#1C1D1C" transform="translate(0,0)"/>
<path d="" fill="#181919" transform="translate(0,0)"/>
<path d="" fill="#242222" transform="translate(0,0)"/>
<path d="" fill="#201F1F" transform="translate(0,0)"/>
<path d="" fill="#1D1E1C" transform="translate(0,0)"/>
<path d="" fill="#1F1C1B" transform="translate(0,0)"/>
<path d="" fill="#1E1D1E" transform="translate(0,0)"/>
<path d="" fill="#1D1B1D" transform="translate(0,0)"/>
<path d="" fill="#252120" transform="translate(0,0)"/>
<path d="" fill="#1F1E1E" transform="translate(0,0)"/>
<path d="" fill="#1E1E1F" transform="translate(0,0)"/>
<path d="" fill="#20201F" transform="translate(0,0)"/>
<path d="" fill="#1D1A1C" transform="translate(0,0)"/>
<path d="" fill="#1C1C1C" transform="translate(0,0)"/>
<path d="" fill="#22221F" transform="translate(0,0)"/>
<path d="" fill="#1E211D" transform="translate(0,0)"/>
<path d="" fill="#201F1E" transform="translate(0,0)"/>
<path d="" fill="#252425" transform="translate(0,0)"/>
<path d="" fill="#212021" transform="translate(0,0)"/>
<path d="" fill="#1E1C1B" transform="translate(0,0)"/>
<path d="" fill="#1C1C1C" transform="translate(0,0)"/>
<path d="" fill="#242424" transform="translate(0,0)"/>
<path d="" fill="#1D1C1B" transform="translate(0,0)"/>
<path d="" fill="#201F1F" transform="translate(0,0)"/>
<path d="" fill="#272625" transform="translate(0,0)"/>
<path d="" fill="#232323" transform="translate(0,0)"/>
<path d="" fill="#252423" transform="translate(0,0)"/>
<path d="" fill="#252425" transform="translate(0,0)"/>
<path d="" fill="#1B1B19" transform="translate(0,0)"/>
<path d="" fill="#1D1B1B" transform="translate(0,0)"/>
<path d="" fill="#212324" transform="translate(0,0)"/>
<path d="" fill="#2896df" transform="translate(0,0)"/>
<path d="" fill="#222222" transform="translate(0,0)"/>
<path d="" fill="#1F1D1D" transform="translate(0,0)"/>
<path d="" fill="#1F1F21" transform="translate(0,0)"/>
<path d="" fill="#20221E" transform="translate(0,0)"/>
<path d="" fill="#20201E" transform="translate(0,0)"/>
<path d="" fill="#222020" transform="translate(0,0)"/>
<path d="" fill="#1C1E1B" transform="translate(0,0)"/>
<path d="" fill="#1D1C1B" transform="translate(0,0)"/>
<path d="" fill="#1B1A1B" transform="translate(0,0)"/>
<path d="" fill="#1D1D1B" transform="translate(0,0)"/>
<path d="" fill="#221F21" transform="translate(0,0)"/>
<path d="" fill="#222122" transform="translate(0,0)"/>
<path d="" fill="#232323" transform="translate(0,0)"/>
<path d="" fill="#252525" transform="translate(0,0)"/>
<path d="" fill="#1F2120" transform="translate(0,0)"/>
<path d="" fill="#1E1E1C" transform="translate(0,0)"/>
<path d="" fill="#1D1E1A" transform="translate(0,0)"/>
<path d="" fill="#232423" transform="translate(0,0)"/>
<path d="" fill="#252121" transform="translate(0,0)"/>
<path d="" fill="#212020" transform="translate(0,0)"/>
<path d="" fill="#232323" transform="translate(0,0)"/>
<path d="" fill="#1E1F1F" transform="translate(0,0)"/>
<path d="" fill="#1E1E1F" transform="translate(0,0)"/>
<path d="" fill="#1E1E1C" transform="translate(0,0)"/>
<path d="" fill="#201F1D" transform="translate(0,0)"/>
<path d="" fill="#232021" transform="translate(0,0)"/>
<path d="" fill="#212021" transform="translate(0,0)"/>
<path d="" fill="#222021" transform="translate(0,0)"/>
<path d="" fill="#1D1E1E" transform="translate(0,0)"/>
<path d="" fill="#20211F" transform="translate(0,0)"/>
<path d="" fill="#222222" transform="translate(0,0)"/>
<path d="" fill="#2896df" transform="translate(0,0)"/>
<path d="" fill="#222120" transform="translate(0,0)"/>
<path d="" fill="#262423" transform="translate(0,0)"/>
<path d="" fill="#242120" transform="translate(0,0)"/>
<path d="" fill="#201E1E" transform="translate(0,0)"/>
<path d="" fill="#232422" transform="translate(0,0)"/>
<path d="" fill="#212120" transform="translate(0,0)"/>
<path d="" fill="#222220" transform="translate(0,0)"/>
<path d="" fill="#232226" transform="translate(0,0)"/>
<path d="" fill="#212221" transform="translate(0,0)"/>
<path d="" fill="#222121" transform="translate(0,0)"/>
<path d="" fill="#222122" transform="translate(0,0)"/>
<path d="" fill="#232020" transform="translate(0,0)"/>
<path d="" fill="#262625" transform="translate(0,0)"/>
<path d="" fill="#201E1E" transform="translate(0,0)"/>
<path d="" fill="#232223" transform="translate(0,0)"/>
<path d="" fill="#262726" transform="translate(0,0)"/>
<path d="" fill="#282726" transform="translate(0,0)"/>
<path d="" fill="#282626" transform="translate(0,0)"/>
<path d="" fill="#262627" transform="translate(0,0)"/>
<path d="" fill="#292A28" transform="translate(0,0)"/>
<path d="" fill="#232322" transform="translate(0,0)"/>
<path d="" fill="#1E1F1F" transform="translate(0,0)"/>
<path d="" fill="#242323" transform="translate(0,0)"/>
<path d="" fill="#262626" transform="translate(0,0)"/>
<path d="" fill="#282725" transform="translate(0,0)"/>
<path d="" fill="#1C1A1A" transform="translate(0,0)"/>
<path d="" fill="#272627" transform="translate(0,0)"/>
<path d="" fill="#222421" transform="translate(0,0)"/>
<path d="" fill="#201F1D" transform="translate(0,0)"/>
<path d="" fill="#2F2B2C" transform="translate(0,0)"/>
<path d="" fill="#252223" transform="translate(0,0)"/>
<path d="" fill="#232323" transform="translate(0,0)"/>
<path d="" fill="#232422" transform="translate(0,0)"/>
<path d="" fill="#202021" transform="translate(0,0)"/>
<path d="" fill="#242222" transform="translate(0,0)"/>
<path d="" fill="#252323" transform="translate(0,0)"/>
<path d="" fill="#272526" transform="translate(0,0)"/>
<path d="" fill="#242524" transform="translate(0,0)"/>
<path d="" fill="#2896df" transform="translate(0,0)"/>
<path d="" fill="#211F1E" transform="translate(0,0)"/>
<path d="" fill="#242424" transform="translate(0,0)"/>
<path d="" fill="#222220" transform="translate(0,0)"/>
<path d="" fill="#242725" transform="translate(0,0)"/>
<path d="" fill="#262526" transform="translate(0,0)"/>
<path d="" fill="#242424" transform="translate(0,0)"/>
<path d="" fill="#1E1F1D" transform="translate(0,0)"/>
<path d="" fill="#2896df" transform="translate(0,0)"/>
<path d="" fill="#1F2020" transform="translate(0,0)"/>
<path d="" fill="#232323" transform="translate(0,0)"/>
<path d="" fill="#262525" transform="translate(0,0)"/>
<path d="" fill="#212021" transform="translate(0,0)"/>
<path d="" fill="#212220" transform="translate(0,0)"/>
<path d="" fill="#292826" transform="translate(0,0)"/>
<path d="" fill="#212021" transform="translate(0,0)"/>
<path d="" fill="#2896df" transform="translate(0,0)"/>
<path d="" fill="#21211F" transform="translate(0,0)"/>
<path d="" fill="#1F1F1E" transform="translate(0,0)"/>
<path d="" fill="#201F1D" transform="translate(0,0)"/>
<path d="" fill="#282626" transform="translate(0,0)"/>
<path d="" fill="#222121" transform="translate(0,0)"/>
<path d="" fill="#1D1D1E" transform="translate(0,0)"/>
<path d="" fill="#232322" transform="translate(0,0)"/>
<path d="" fill="#212221" transform="translate(0,0)"/>
<path d="" fill="#1D1C1D" transform="translate(0,0)"/>
<path d="" fill="#232323" transform="translate(0,0)"/>
<path d="" fill="#272725" transform="translate(0,0)"/>
<path d="" fill="#252424" transform="translate(0,0)"/>
<path d="" fill="#1D1D1D" transform="translate(0,0)"/>
<path d="" fill="#222222" transform="translate(0,0)"/>
<path d="" fill="#292729" transform="translate(0,0)"/>
<path d="" fill="#171816" transform="translate(0,0)"/>
<path d="" fill="#2A2B2A" transform="translate(0,0)"/>
<path d="" fill="#171817" transform="translate(0,0)"/>
<path d="" fill="#211F1F" transform="translate(0,0)"/>
<path d="" fill="#22221F" transform="translate(0,0)"/>
<path d="" fill="#292728" transform="translate(0,0)"/>
<path d="" fill="#212121" transform="translate(0,0)"/>
<path d="" fill="#1E1D1F" transform="translate(0,0)"/>
<path d="" fill="#1F2121" transform="translate(0,0)"/>
<path d="" fill="#232220" transform="translate(0,0)"/>
<path d="" fill="#242422" transform="translate(0,0)"/>
<path d="" fill="#252725" transform="translate(0,0)"/>
<path d="" fill="#252422" transform="translate(0,0)"/>
<path d="" fill="#212120" transform="translate(0,0)"/>
<path d="" fill="#2B2C2B" transform="translate(0,0)"/>
<path d="" fill="#2B2B2B" transform="translate(0,0)"/>
<path d="" fill="#292927" transform="translate(0,0)"/>
<path d="" fill="#2C2C2B" transform="translate(0,0)"/>
<path d="" fill="#222222" transform="translate(0,0)"/>
<path d="" fill="#1F2220" transform="translate(0,0)"/>
<path d="" fill="#232120" transform="translate(0,0)"/>
<path d="" fill="#222121" transform="translate(0,0)"/>
<path d="" fill="#212020" transform="translate(0,0)"/>
<path d="" fill="#232223" transform="translate(0,0)"/>
<path d="" fill="#2A2928" transform="translate(0,0)"/>
<path d="" fill="#1E1E1D" transform="translate(0,0)"/>
<path d="" fill="#21221F" transform="translate(0,0)"/>
<path d="" fill="#211F1D" transform="translate(0,0)"/>
<path d="" fill="#222220" transform="translate(0,0)"/>
<path d="" fill="#262626" transform="translate(0,0)"/>
<path d="" fill="#222122" transform="translate(0,0)"/>
<path d="" fill="#1F201E" transform="translate(0,0)"/>
<path d="" fill="#212122" transform="translate(0,0)"/>
<path d="" fill="#1F1E1D" transform="translate(0,0)"/>
<path d="" fill="#2896df" transform="translate(0,0)"/>
<path d="" fill="#202120" transform="translate(0,0)"/>
<path d="" fill="#222320" transform="translate(0,0)"/>
<path d="" fill="#252323" transform="translate(0,0)"/>
<path d="" fill="#1F1F1E" transform="translate(0,0)"/>
<path d="" fill="#1E201F" transform="translate(0,0)"/>
<path d="" fill="#201F1F" transform="translate(0,0)"/>
<path d="" fill="#231F22" transform="translate(0,0)"/>
<path d="" fill="#2896df" transform="translate(0,0)"/>
<path d="" fill="#242423" transform="translate(0,0)"/>
<path d="" fill="#242323" transform="translate(0,0)"/>
<path d="" fill="#1B1E1D" transform="translate(0,0)"/>
<path d="" fill="#1A1C1A" transform="translate(0,0)"/>
<path d="" fill="#1E1C1B" transform="translate(0,0)"/>
<path d="" fill="#191B1D" transform="translate(0,0)"/>
<path d="" fill="#1D1C1E" transform="translate(0,0)"/>
<path d="" fill="#2896df" transform="translate(0,0)"/>
<path d="" fill="#201D1C" transform="translate(0,0)"/>
<path d="" fill="#242321" transform="translate(0,0)"/>
<path d="" fill="#1E1D1C" transform="translate(0,0)"/>
<path d="" fill="#191818" transform="translate(0,0)"/>
<path d="" fill="#222224" transform="translate(0,0)"/>
<path d="" fill="#2C2C2B" transform="translate(0,0)"/>
<path d="" fill="#2D2C2E" transform="translate(0,0)"/>
<path d="" fill="#2F2C2B" transform="translate(0,0)"/>
<path d="" fill="#2E2D2C" transform="translate(0,0)"/>
<path d="" fill="#2D2E2D" transform="translate(0,0)"/>
<path d="" fill="#262625" transform="translate(0,0)"/>
<path d="" fill="#2A2927" transform="translate(0,0)"/>
<path d="" fill="#1D1E1C" transform="translate(0,0)"/>
<path d="" fill="#201F21" transform="translate(0,0)"/>
<path d="" fill="#232320" transform="translate(0,0)"/>
<path d="" fill="#191A19" transform="translate(0,0)"/>
<path d="" fill="#222222" transform="translate(0,0)"/>
<path d="" fill="#1F1E1C" transform="translate(0,0)"/>
<path d="" fill="#252724" transform="translate(0,0)"/>
<path d="" fill="#1D1C1B" transform="translate(0,0)"/>
<path d="" fill="#1F1E1C" transform="translate(0,0)"/>
<path d="" fill="#1D1D1D" transform="translate(0,0)"/>
<path d="" fill="#282524" transform="translate(0,0)"/>
<path d="" fill="#1C1915" transform="translate(0,0)"/>
<path d="" fill="#242423" transform="translate(0,0)"/>
<path d="" fill="#1C1B18" transform="translate(0,0)"/>
<path d="" fill="#1B1B1A" transform="translate(0,0)"/>
<path d="" fill="#1E201E" transform="translate(0,0)"/>
<path d="" fill="#1D1D1E" transform="translate(0,0)"/>
<path d="" fill="#222624" transform="translate(0,0)"/>
<path d="" fill="#242221" transform="translate(0,0)"/>
<path d="" fill="#232425" transform="translate(0,0)"/>
<path d="" fill="#1B1919" transform="translate(0,0)"/>
<path d="" fill="#1D1B1C" transform="translate(0,0)"/>
<path d="" fill="#1F1D1E" transform="translate(0,0)"/>
<path d="" fill="#1E1F1F" transform="translate(0,0)"/>
<path d="" fill="#1C1B1B" transform="translate(0,0)"/>
<path d="" fill="#211F20" transform="translate(0,0)"/>
<path d="" fill="#222222" transform="translate(0,0)"/>
<path d="" fill="#191719" transform="translate(0,0)"/>
<path d="" fill="#1B181A" transform="translate(0,0)"/>
<path d="" fill="#262527" transform="translate(0,0)"/>
<path d="" fill="#131614" transform="translate(0,0)"/>
<path d="" fill="#1C1918" transform="translate(0,0)"/>
<path d="" fill="#1E1E1F" transform="translate(0,0)"/>
<path d="" fill="#221E1F" transform="translate(0,0)"/>
<path d="" fill="#21201F" transform="translate(0,0)"/>
<path d="" fill="#1B1918" transform="translate(0,0)"/>
<path d="" fill="#1B1A19" transform="translate(0,0)"/>
<path d="" fill="#191917" transform="translate(0,0)"/>
<path d="" fill="#252525" transform="translate(0,0)"/>
<path d="" fill="#171716" transform="translate(0,0)"/>
<path d="" fill="#1A1819" transform="translate(0,0)"/>
<path d="" fill="#1E1D1C" transform="translate(0,0)"/>
<path d="" fill="#262324" transform="translate(0,0)"/>
<path d="" fill="#1F2020" transform="translate(0,0)"/>
<path d="" fill="#201D20" transform="translate(0,0)"/>
<path d="" fill="#212321" transform="translate(0,0)"/>
<path d="" fill="#20211E" transform="translate(0,0)"/>
<path d="" fill="#201F1F" transform="translate(0,0)"/>
<path d="" fill="#252524" transform="translate(0,0)"/>
<path d="" fill="#1C1B17" transform="translate(0,0)"/>
<path d="" fill="#1F1F1F" transform="translate(0,0)"/>
<path d="" fill="#262424" transform="translate(0,0)"/>
<path d="" fill="#262726" transform="translate(0,0)"/>
<path d="" fill="#1B191B" transform="translate(0,0)"/>
<path d="" fill="#2896df" transform="translate(0,0)"/>
<path d="" fill="#232121" transform="translate(0,0)"/>
<path d="" fill="#202020" transform="translate(0,0)"/>
<path d="" fill="#1C1F1C" transform="translate(0,0)"/>
<path d="" fill="#20201E" transform="translate(0,0)"/>
<path d="" fill="#1C1C1A" transform="translate(0,0)"/>
<path d="" fill="#201E1E" transform="translate(0,0)"/>
<path d="" fill="#1B1C19" transform="translate(0,0)"/>
<path d="" fill="#222121" transform="translate(0,0)"/>
<path d="" fill="#1E1E1D" transform="translate(0,0)"/>
<path d="" fill="#242524" transform="translate(0,0)"/>
<path d="" fill="#1B1C1B" transform="translate(0,0)"/>
<path d="" fill="#2D2D2B" transform="translate(0,0)"/>
<path d="" fill="#1D1E1D" transform="translate(0,0)"/>
<path d="" fill="#1D1E1C" transform="translate(0,0)"/>
<path d="" fill="#2B2D2B" transform="translate(0,0)"/>
<path d="" fill="#272527" transform="translate(0,0)"/>
<path d="" fill="#1B1C1C" transform="translate(0,0)"/>
<path d="" fill="#1F1C1D" transform="translate(0,0)"/>
<path d="" fill="#22221F" transform="translate(0,0)"/>
<path d="" fill="#292A29" transform="translate(0,0)"/>
<path d="" fill="#191C1D" transform="translate(0,0)"/>
<path d="" fill="#212220" transform="translate(0,0)"/>
<path d="" fill="#201F1E" transform="translate(0,0)"/>
<path d="" fill="#1C1A1A" transform="translate(0,0)"/>
<path d="" fill="#211F1E" transform="translate(0,0)"/>
<path d="" fill="#20211F" transform="translate(0,0)"/>
<path d="" fill="#222222" transform="translate(0,0)"/>
<path d="" fill="#1C1D1B" transform="translate(0,0)"/>
<path d="" fill="#1A1C1B" transform="translate(0,0)"/>
<path d="" fill="#1A1A1A" transform="translate(0,0)"/>
<path d="" fill="#1F1E1E" transform="translate(0,0)"/>
<path d="" fill="#1E2020" transform="translate(0,0)"/>
<path d="" fill="#1B1B1B" transform="translate(0,0)"/>
<path d="" fill="#191917" transform="translate(0,0)"/>
<path d="" fill="#21211E" transform="translate(0,0)"/>
<path d="" fill="#1F1F21" transform="translate(0,0)"/>
<path d="" fill="#222121" transform="translate(0,0)"/>
<path d="" fill="#202021" transform="translate(0,0)"/>
<path d="" fill="#1F2121" transform="translate(0,0)"/>
<path d="" fill="#212020" transform="translate(0,0)"/>
<path d="" fill="#242223" transform="translate(0,0)"/>
<path d="" fill="#232621" transform="translate(0,0)"/>
<path d="" fill="#1C1A18" transform="translate(0,0)"/>
<path d="" fill="#292726" transform="translate(0,0)"/>
<path d="" fill="#1D1D1D" transform="translate(0,0)"/>
<path d="" fill="#232424" transform="translate(0,0)"/>
<path d="" fill="#1A1C1E" transform="translate(0,0)"/>
<path d="" fill="#1A1A1A" transform="translate(0,0)"/>
<path d="" fill="#1D1D1B" transform="translate(0,0)"/>
<path d="" fill="#272725" transform="translate(0,0)"/>
<path d="" fill="#181A17" transform="translate(0,0)"/>
<path d="" fill="#282626" transform="translate(0,0)"/>
<path d="" fill="#252422" transform="translate(0,0)"/>
<path d="" fill="#272825" transform="translate(0,0)"/>
<path d="" fill="#262626" transform="translate(0,0)"/>
<path d="" fill="#292526" transform="translate(0,0)"/>
<path d="" fill="#282827" transform="translate(0,0)"/>
<path d="" fill="#252624" transform="translate(0,0)"/>
<path d="" fill="#242525" transform="translate(0,0)"/>
<path d="" fill="#252424" transform="translate(0,0)"/>
<path d="" fill="#252425" transform="translate(0,0)"/>
<path d="" fill="#272826" transform="translate(0,0)"/>
<path d="" fill="#1A1D1C" transform="translate(0,0)"/>
<path d="" fill="#272624" transform="translate(0,0)"/>
<path d="" fill="#1C1B19" transform="translate(0,0)"/>
<path d="" fill="#282724" transform="translate(0,0)"/>
<path d="" fill="#1B1B1B" transform="translate(0,0)"/>
<path d="" fill="#262624" transform="translate(0,0)"/>
<path d="" fill="#272428" transform="translate(0,0)"/>
<path d="" fill="#181817" transform="translate(0,0)"/>
<path d="" fill="#252525" transform="translate(0,0)"/>
<path d="" fill="#282727" transform="translate(0,0)"/>
<path d="" fill="#252423" transform="translate(0,0)"/>
<path d="" fill="#232423" transform="translate(0,0)"/>
<path d="" fill="#272927" transform="translate(0,0)"/>
<path d="" fill="#272826" transform="translate(0,0)"/>
<path d="" fill="#242522" transform="translate(0,0)"/>
<path d="" fill="#242425" transform="translate(0,0)"/>
<path d="" fill="#282929" transform="translate(0,0)"/>
<path d="" fill="#292927" transform="translate(0,0)"/>
<path d="" fill="#282626" transform="translate(0,0)"/>
<path d="" fill="#232221" transform="translate(0,0)"/>
<path d="" fill="#252624" transform="translate(0,0)"/>
<path d="" fill="#2C2B2B" transform="translate(0,0)"/>
<path d="" fill="#2B2A2B" transform="translate(0,0)"/>
<path d="" fill="#252525" transform="translate(0,0)"/>
<path d="" fill="#2D2B2B" transform="translate(0,0)"/>
<path d="" fill="#2C2D2C" transform="translate(0,0)"/>
<path d="" fill="#232220" transform="translate(0,0)"/>
<path d="" fill="#262627" transform="translate(0,0)"/>
<path d="" fill="#282627" transform="translate(0,0)"/>
<path d="" fill="#2C2C2B" transform="translate(0,0)"/>
<path d="" fill="#292928" transform="translate(0,0)"/>
<path d="" fill="#181918" transform="translate(0,0)"/>
<path d="" fill="#282626" transform="translate(0,0)"/>
<path d="" fill="#252624" transform="translate(0,0)"/>
<path d="" fill="#292827" transform="translate(0,0)"/>
<path d="" fill="#262626" transform="translate(0,0)"/>
<path d="" fill="#292827" transform="translate(0,0)"/>
<path d="" fill="#262625" transform="translate(0,0)"/>
<path d="" fill="#212221" transform="translate(0,0)"/>
<path d="" fill="#262626" transform="translate(0,0)"/>
<path d="" fill="#272825" transform="translate(0,0)"/>
<path d="" fill="#262325" transform="translate(0,0)"/>
<path d="" fill="#262624" transform="translate(0,0)"/>
<path d="" fill="#242423" transform="translate(0,0)"/>
<path d="" fill="#272727" transform="translate(0,0)"/>
<path d="" fill="#292726" transform="translate(0,0)"/>
<path d="" fill="#272826" transform="translate(0,0)"/>
<path d="" fill="#242223" transform="translate(0,0)"/>
<path d="" fill="#272526" transform="translate(0,0)"/>
<path d="" fill="#2B2B2B" transform="translate(0,0)"/>
<path d="" fill="#2A2B2A" transform="translate(0,0)"/>
<path d="" fill="#1B1C1A" transform="translate(0,0)"/>
<path d="" fill="#181918" transform="translate(0,0)"/>
<path d="" fill="#282626" transform="translate(0,0)"/>
<path d="" fill="#2A2927" transform="translate(0,0)"/>
<path d="" fill="#171814" transform="translate(0,0)"/>
<path d="" fill="#272A26" transform="translate(0,0)"/>
<path d="" fill="#191919" transform="translate(0,0)"/>
<path d="" fill="#2A2B26" transform="translate(0,0)"/>
<path d="" fill="#292926" transform="translate(0,0)"/>
<path d="" fill="#282625" transform="translate(0,0)"/>
<path d="" fill="#2A2A2B" transform="translate(0,0)"/>
<path d="" fill="#2B2926" transform="translate(0,0)"/>
<path d="" fill="#212121" transform="translate(0,0)"/>
<path d="" fill="#2B2C2C" transform="translate(0,0)"/>
<path d="" fill="#2C2E2C" transform="translate(0,0)"/>
<path d="" fill="#292B2A" transform="translate(0,0)"/>
<path d="" fill="#2B2A29" transform="translate(0,0)"/>
<path d="" fill="#1E1B1B" transform="translate(0,0)"/>
<path d="" fill="#1F1F21" transform="translate(0,0)"/>
<path d="" fill="#1E1F1E" transform="translate(0,0)"/>
<path d="" fill="#222222" transform="translate(0,0)"/>
<path d="" fill="#1E1A1B" transform="translate(0,0)"/>
<path d="" fill="#191B18" transform="translate(0,0)"/>
<path d="" fill="#211D1E" transform="translate(0,0)"/>
<path d="" fill="#191916" transform="translate(0,0)"/>
<path d="" fill="#181917" transform="translate(0,0)"/>
<path d="" fill="#191718" transform="translate(0,0)"/>
<path d="" fill="#171717" transform="translate(0,0)"/>
<path d="" fill="#212121" transform="translate(0,0)"/>
<path d="" fill="#2896df" transform="translate(0,0)"/>
<path d="" fill="#161515" transform="translate(0,0)"/>
<path d="" fill="#222523" transform="translate(0,0)"/>
<path d="" fill="#252526" transform="translate(0,0)"/>
<path d="" fill="#252625" transform="translate(0,0)"/>
<path d="" fill="#181716" transform="translate(0,0)"/>
<path d="" fill="#202221" transform="translate(0,0)"/>
<path d="" fill="#222123" transform="translate(0,0)"/>
<path d="" fill="#252221" transform="translate(0,0)"/>
<path d="" fill="#191916" transform="translate(0,0)"/>
<path d="" fill="#232423" transform="translate(0,0)"/>
<path d="" fill="#242625" transform="translate(0,0)"/>
<path d="" fill="#212020" transform="translate(0,0)"/>
<path d="" fill="#232324" transform="translate(0,0)"/>
<path d="" fill="#232321" transform="translate(0,0)"/>
<path d="" fill="#232123" transform="translate(0,0)"/>
<path d="" fill="#222220" transform="translate(0,0)"/>
<path d="" fill="#242323" transform="translate(0,0)"/>
<path d="" fill="#21231F" transform="translate(0,0)"/>
<path d="" fill="#212122" transform="translate(0,0)"/>
<path d="" fill="#2896df" transform="translate(0,0)"/>
<path d="" fill="#232423" transform="translate(0,0)"/>
<path d="" fill="#242324" transform="translate(0,0)"/>
<path d="" fill="#2A2827" transform="translate(0,0)"/>
<path d="" fill="#2D2E2D" transform="translate(0,0)"/>
<path d="" fill="#2896df" transform="translate(0,0)"/>
<path d="" fill="#292B28" transform="translate(0,0)"/>
<path d="" fill="#292828" transform="translate(0,0)"/>
</svg>
